<svg xmlns="http://www.w3.org/2000/svg" xmlns:xlink="http://www.w3.org/1999/xlink" width="500" zoomAndPan="magnify" viewBox="0 0 375 374.999991" height="500" preserveAspectRatio="xMidYMid meet" version="1.2"><defs><clipPath id="c6dface52c"><path d="M 12.171875 68.589844 L 362.710938 68.589844 L 362.710938 306.335938 L 12.171875 306.335938 Z M 12.171875 68.589844 "/></clipPath></defs><g id="9b6b8fe226"><g clip-rule="nonzero" clip-path="url(#c6dface52c)"><path style=" stroke:none;fill-rule:evenodd;fill:#231f20;fill-opacity:1;" d="M 244.527344 143.839844 L 269.644531 149.558594 L 351.847656 168.269531 L 351.847656 182.503906 L 362.710938 182.503906 C 356.5 209.753906 357.253906 234.980469 362.710938 258.800781 L 351.847656 258.800781 L 351.847656 268.90625 L 187.441406 306.335938 L 23.035156 268.90625 L 23.035156 258.800781 L 12.171875 258.800781 C 18.59375 234.898438 20.171875 209.839844 12.171875 182.503906 L 23.035156 182.503906 L 23.035156 168.269531 L 105.238281 149.558594 L 130.355469 143.839844 C 128.933594 138.753906 128.171875 133.394531 128.171875 127.859375 C 128.171875 95.128906 154.714844 68.589844 187.441406 68.589844 C 220.167969 68.589844 246.710938 95.128906 246.710938 127.859375 C 246.710938 133.394531 245.949219 138.753906 244.527344 143.839844 "/></g><path style=" stroke:none;fill-rule:nonzero;fill:#da420e;fill-opacity:1;" d="M 194.714844 99.125 C 193.179688 86.378906 204.558594 116.183594 199.773438 129.3125 C 196.550781 138.296875 194.9375 142.746094 194.9375 142.671875 C 202.386719 138.578125 206.59375 133.277344 207.539062 126.773438 C 208.46875 130.421875 208.410156 135.460938 207.375 141.910156 C 206.242188 148.675781 205.945312 153.492188 206.445312 156.347656 C 209.261719 154.976562 211.488281 152.457031 213.117188 148.804688 C 214.0625 146.601562 215.136719 142.910156 216.324219 137.722656 C 217.878906 147.324219 217.601562 155.625 215.453125 162.648438 C 212.933594 171.042969 208.097656 175.710938 200.960938 176.65625 C 200.960938 176.695312 201.980469 175.007812 204 171.617188 C 205.519531 169.003906 205.984375 166.296875 205.351562 163.519531 C 205.148438 163.777344 204.480469 164.632812 203.351562 166.074219 C 202.480469 167.1875 201.722656 168.058594 201.074219 168.671875 C 199.144531 170.523438 197.105469 171.171875 194.9375 170.632812 C 192.917969 167.226562 193.085938 161.203125 195.476562 152.546875 C 194.640625 153.234375 192.753906 156.292969 189.785156 161.722656 C 187.398438 166.074219 185.097656 168.113281 182.894531 167.855469 C 181.152344 167.6875 179.816406 166.113281 178.929688 163.128906 C 178.667969 162.371094 178.316406 161.054688 177.890625 159.183594 C 177.484375 157.402344 177.148438 156.105469 176.851562 155.273438 C 176.574219 155.882812 176.257812 157.699219 175.945312 160.703125 C 175.722656 163.054688 175.113281 164.539062 174.089844 165.148438 C 172.3125 164.816406 170.960938 163.722656 170.015625 161.832031 C 170.125 161.980469 169.476562 160.148438 168.066406 156.347656 C 166.902344 160.109375 167.457031 163.945312 169.753906 167.855469 C 170.402344 169.058594 171.386719 170.503906 172.738281 172.210938 C 174.074219 173.914062 174.890625 175.027344 175.167969 175.5625 C 164.566406 172.894531 158.730469 167.597656 157.636719 159.664062 C 157.320312 157.125 158.152344 150.582031 160.136719 140.003906 C 161.730469 131.644531 161.082031 125.402344 158.171875 121.289062 C 166.136719 120.925781 170.046875 125.644531 171.367188 137.1875 C 175.390625 134.574219 176.40625 129.921875 174.40625 123.175781 C 172.925781 118.230469 170.8125 114.113281 168.066406 110.855469 C 195.320312 127.398438 195.238281 103.460938 194.714844 99.125 "/><path style=" stroke:none;fill-rule:nonzero;fill:#ffffff;fill-opacity:1;" d="M 187.53125 298.371094 L 186.660156 298.371094 L 113.820312 281.789062 L 40.976562 265.203125 L 38.1875 264.570312 L 38.1875 256.347656 L 27.480469 256.347656 L 28.6875 251.859375 C 31.46875 241.511719 33.203125 230.949219 33.371094 220.074219 C 33.539062 209.183594 32.160156 197.921875 28.714844 186.164062 L 27.382812 181.605469 L 38.1875 181.605469 L 38.1875 169.722656 L 40.976562 169.089844 L 113.820312 152.507812 L 132.546875 148.242188 C 132.28125 146.972656 132.058594 145.683594 131.878906 144.382812 C 131.535156 141.839844 131.355469 139.289062 131.355469 136.75 C 131.355469 121.265625 137.632812 107.242188 147.78125 97.089844 C 157.933594 86.941406 171.957031 80.660156 187.441406 80.660156 L 187.53125 80.664062 L 187.53125 87.796875 L 187.441406 87.796875 C 173.925781 87.796875 161.6875 93.277344 152.828125 102.136719 C 143.96875 110.996094 138.492188 123.234375 138.492188 136.75 C 138.492188 139.0625 138.640625 141.296875 138.933594 143.433594 C 139.238281 145.65625 139.691406 147.839844 140.285156 149.960938 L 141.289062 153.550781 L 137.636719 154.378906 L 115.378906 159.449219 L 45.324219 175.398438 L 45.324219 188.742188 L 36.789062 188.742188 C 39.527344 199.570312 40.636719 210.015625 40.480469 220.160156 C 40.324219 230.140625 38.953125 239.792969 36.710938 249.210938 L 45.324219 249.210938 L 45.324219 258.898438 L 115.378906 274.847656 L 187.441406 291.253906 L 187.53125 291.230469 Z M 242.335938 148.242188 L 261.0625 152.507812 L 333.902344 169.089844 L 336.691406 169.722656 L 336.691406 181.605469 L 347.210938 181.605469 L 346.222656 185.953125 C 343.53125 197.765625 342.347656 209.125 342.425781 220.101562 C 342.507812 231.050781 343.855469 241.65625 346.222656 251.984375 L 347.222656 256.347656 L 336.691406 256.347656 L 336.691406 264.570312 L 333.902344 265.203125 L 261.0625 281.789062 L 188.222656 298.371094 L 187.53125 298.371094 L 187.53125 291.230469 L 259.503906 274.847656 L 329.554688 258.898438 L 329.554688 249.210938 L 338.34375 249.210938 C 336.457031 239.796875 335.394531 230.121094 335.320312 220.128906 C 335.246094 209.976562 336.195312 199.527344 338.351562 188.742188 L 329.554688 188.742188 L 329.554688 175.398438 L 259.503906 159.449219 L 237.242188 154.378906 L 233.59375 153.550781 L 234.59375 149.960938 C 235.191406 147.839844 235.644531 145.65625 235.949219 143.433594 C 236.242188 141.296875 236.390625 139.0625 236.390625 136.75 C 236.390625 123.234375 230.910156 110.996094 222.054688 102.136719 C 213.214844 93.296875 201.011719 87.824219 187.53125 87.796875 L 187.53125 80.664062 C 202.980469 80.6875 216.96875 86.960938 227.097656 97.089844 C 237.25 107.242188 243.527344 121.265625 243.527344 136.75 C 243.527344 139.289062 243.347656 141.839844 243 144.382812 C 242.824219 145.683594 242.601562 146.972656 242.335938 148.242188 "/><g style="fill:#ffffff;fill-opacity:1;"><g transform="translate(47.292753, 240.258421)"><path style="stroke:none" d="M 33.109375 -2.671875 C 33.109375 -2.671875 33.0625 -2.445312 32.96875 -2 C 32.882812 -1.550781 32.6875 -1.101562 32.375 -0.65625 C 32.0625 -0.21875 31.570312 0 30.90625 0 C 30.113281 0 29.394531 -0.03125 28.75 -0.09375 C 28.101562 -0.164062 27.378906 -0.203125 26.578125 -0.203125 C 25.910156 -0.203125 25.3125 -0.175781 24.78125 -0.125 C 24.25 -0.0820312 23.648438 -0.0625 22.984375 -0.0625 C 22.179688 -0.0625 21.632812 -0.21875 21.34375 -0.53125 C 21.0625 -0.84375 20.910156 -1.195312 20.890625 -1.59375 C 20.867188 -2 20.832031 -2.3125 20.78125 -2.53125 C 20.78125 -2.75 20.75 -3.210938 20.6875 -3.921875 C 20.625 -4.640625 20.546875 -5.363281 20.453125 -6.09375 C 20.367188 -6.832031 20.210938 -7.289062 19.984375 -7.46875 C 19.804688 -7.644531 19.726562 -7.71875 19.75 -7.6875 C 19.769531 -7.664062 19.671875 -7.722656 19.453125 -7.859375 C 19.410156 -7.898438 18.890625 -7.929688 17.890625 -7.953125 C 16.890625 -7.984375 16.007812 -8 15.25 -8 C 14.007812 -8 13.300781 -7.832031 13.125 -7.5 C 12.945312 -7.164062 12.789062 -6.617188 12.65625 -5.859375 C 12.65625 -5.679688 12.632812 -5.222656 12.59375 -4.484375 C 12.550781 -3.753906 12.484375 -3.035156 12.390625 -2.328125 C 12.304688 -1.617188 12.195312 -1.15625 12.0625 -0.9375 C 11.832031 -0.625 11.582031 -0.398438 11.3125 -0.265625 C 11.050781 -0.128906 10.65625 -0.0625 10.125 -0.0625 C 9.5 -0.0625 8.929688 -0.0703125 8.421875 -0.09375 C 7.910156 -0.125 7.347656 -0.140625 6.734375 -0.140625 C 6.066406 -0.140625 5.398438 -0.125 4.734375 -0.09375 C 4.066406 -0.0703125 3.398438 -0.0625 2.734375 -0.0625 C 2.148438 -0.0625 1.582031 -0.160156 1.03125 -0.359375 C 0.476562 -0.566406 0.203125 -1.113281 0.203125 -2 C 0.203125 -2.269531 0.253906 -2.691406 0.359375 -3.265625 C 0.472656 -3.835938 0.597656 -4.484375 0.734375 -5.203125 C 0.867188 -6.085938 0.96875 -6.863281 1.03125 -7.53125 C 1.09375 -8.195312 1.21875 -8.953125 1.40625 -9.796875 C 1.53125 -10.546875 1.660156 -11.234375 1.796875 -11.859375 C 1.929688 -12.484375 2.066406 -13.171875 2.203125 -13.921875 C 2.421875 -15.035156 2.570312 -16.023438 2.65625 -16.890625 C 2.75 -17.753906 2.882812 -18.742188 3.0625 -19.859375 C 3.238281 -20.960938 3.414062 -21.9375 3.59375 -22.78125 C 3.769531 -23.625 3.925781 -24.601562 4.0625 -25.71875 C 4.15625 -26.46875 4.234375 -27.164062 4.296875 -27.8125 C 4.359375 -28.457031 4.457031 -29.179688 4.59375 -29.984375 C 4.769531 -30.867188 4.945312 -31.6875 5.125 -32.4375 C 5.300781 -33.195312 5.476562 -34.019531 5.65625 -34.90625 C 5.925781 -36.332031 6.113281 -37.597656 6.21875 -38.703125 C 6.332031 -39.816406 6.546875 -41.0625 6.859375 -42.4375 C 7.085938 -43.320312 7.320312 -44.140625 7.5625 -44.890625 C 7.800781 -45.648438 8.078125 -46.1875 8.390625 -46.5 C 9.015625 -46.988281 9.992188 -47.234375 11.328125 -47.234375 C 12.484375 -47.234375 13.515625 -47.1875 14.421875 -47.09375 C 15.335938 -47.007812 16.347656 -46.96875 17.453125 -46.96875 C 18.296875 -46.96875 19.140625 -46.976562 19.984375 -47 C 20.828125 -47.019531 21.671875 -47.03125 22.515625 -47.03125 L 22.78125 -47.03125 C 23.675781 -47.03125 24.3125 -46.941406 24.6875 -46.765625 C 25.0625 -46.585938 25.40625 -46.210938 25.71875 -45.640625 C 25.800781 -45.597656 25.863281 -45.472656 25.90625 -45.265625 C 25.957031 -45.066406 26.003906 -44.925781 26.046875 -44.84375 C 26.046875 -44.84375 26.101562 -44.519531 26.21875 -43.875 C 26.332031 -43.226562 26.476562 -42.503906 26.65625 -41.703125 C 26.832031 -40.910156 26.972656 -40.191406 27.078125 -39.546875 C 27.191406 -38.898438 27.25 -38.578125 27.25 -38.578125 C 27.425781 -37.515625 27.554688 -36.546875 27.640625 -35.671875 C 27.734375 -34.804688 27.867188 -33.84375 28.046875 -32.78125 C 28.265625 -31.488281 28.472656 -30.320312 28.671875 -29.28125 C 28.878906 -28.238281 29.113281 -27.070312 29.375 -25.78125 C 29.601562 -24.757812 29.804688 -23.816406 29.984375 -22.953125 C 30.160156 -22.085938 30.316406 -21.144531 30.453125 -20.125 C 30.671875 -18.75 30.8125 -17.515625 30.875 -16.421875 C 30.945312 -15.335938 31.070312 -14.101562 31.25 -12.71875 C 31.46875 -11.394531 31.722656 -10.007812 32.015625 -8.5625 C 32.304688 -7.113281 32.5625 -5.84375 32.78125 -4.75 C 33 -3.664062 33.109375 -2.972656 33.109375 -2.671875 Z M 18.78125 -21.71875 C 18.78125 -22.914062 18.703125 -24.101562 18.546875 -25.28125 C 18.398438 -26.457031 18.25 -27.488281 18.09375 -28.375 C 17.9375 -29.269531 17.832031 -29.875 17.78125 -30.1875 C 17.738281 -30.71875 17.679688 -31.269531 17.609375 -31.84375 C 17.546875 -32.425781 17.472656 -32.757812 17.390625 -32.84375 C 17.253906 -33.332031 17.03125 -33.578125 16.71875 -33.578125 C 16.457031 -33.578125 16.28125 -33.351562 16.1875 -32.90625 C 16.144531 -32.820312 16.078125 -32.566406 15.984375 -32.140625 C 15.898438 -31.722656 15.820312 -31.3125 15.75 -30.90625 C 15.6875 -30.507812 15.632812 -30.242188 15.59375 -30.109375 C 15.5 -29.710938 15.40625 -29.347656 15.3125 -29.015625 C 15.226562 -28.679688 15.144531 -28.316406 15.0625 -27.921875 C 15.0625 -27.785156 15.015625 -27.40625 14.921875 -26.78125 C 14.835938 -26.15625 14.738281 -25.460938 14.625 -24.703125 C 14.507812 -23.953125 14.40625 -23.273438 14.3125 -22.671875 C 14.226562 -22.078125 14.1875 -21.71875 14.1875 -21.59375 C 14.1875 -20.5625 14.394531 -19.925781 14.8125 -19.6875 C 15.238281 -19.445312 15.71875 -19.328125 16.25 -19.328125 C 16.695312 -19.328125 17.226562 -19.425781 17.84375 -19.625 C 18.46875 -19.820312 18.78125 -20.519531 18.78125 -21.71875 Z M 18.78125 -21.71875 "/></g></g><g style="fill:#ffffff;fill-opacity:1;"><g transform="translate(80.60061, 240.258421)"><path style="stroke:none" d="M 33.78125 -1.59375 C 33.78125 -0.882812 33.5 -0.472656 32.9375 -0.359375 C 32.382812 -0.253906 32.066406 -0.203125 31.984375 -0.203125 L 31.71875 -0.203125 C 31.132812 -0.203125 30.628906 -0.222656 30.203125 -0.265625 C 29.785156 -0.304688 29.289062 -0.328125 28.71875 -0.328125 C 28.050781 -0.328125 27.460938 -0.328125 26.953125 -0.328125 C 26.441406 -0.328125 25.875 -0.304688 25.25 -0.265625 C 24.894531 -0.265625 24.5625 -0.242188 24.25 -0.203125 C 23.9375 -0.160156 23.601562 -0.140625 23.25 -0.140625 C 22.1875 -0.140625 21.507812 -0.484375 21.21875 -1.171875 C 20.925781 -1.859375 20.601562 -2.578125 20.25 -3.328125 C 19.9375 -4.128906 19.601562 -4.828125 19.25 -5.421875 C 18.894531 -6.023438 18.539062 -6.707031 18.1875 -7.46875 C 17.96875 -8 17.78125 -8.472656 17.625 -8.890625 C 17.46875 -9.316406 17.253906 -9.796875 16.984375 -10.328125 C 16.722656 -10.859375 16.476562 -11.320312 16.25 -11.71875 C 16.03125 -12.125 15.742188 -12.328125 15.390625 -12.328125 C 14.898438 -12.328125 14.632812 -12.09375 14.59375 -11.625 C 14.550781 -11.15625 14.53125 -10.832031 14.53125 -10.65625 C 14.53125 -9.988281 14.539062 -9.390625 14.5625 -8.859375 C 14.582031 -8.328125 14.59375 -7.75 14.59375 -7.125 C 14.59375 -6.632812 14.582031 -6.191406 14.5625 -5.796875 C 14.539062 -5.398438 14.53125 -4.957031 14.53125 -4.46875 C 14.53125 -4.019531 14.550781 -3.59375 14.59375 -3.1875 C 14.632812 -2.789062 14.65625 -2.347656 14.65625 -1.859375 C 14.65625 -1.148438 14.476562 -0.671875 14.125 -0.421875 C 13.769531 -0.179688 13.414062 -0.0625 13.0625 -0.0625 C 12.351562 -0.0625 11.71875 -0.09375 11.15625 -0.15625 C 10.601562 -0.226562 9.945312 -0.265625 9.1875 -0.265625 C 8.34375 -0.265625 7.578125 -0.21875 6.890625 -0.125 C 6.203125 -0.0390625 5.4375 0 4.59375 0 C 3.882812 0 3.34375 -0.21875 2.96875 -0.65625 C 2.59375 -1.101562 2.40625 -1.660156 2.40625 -2.328125 C 2.40625 -2.816406 2.425781 -3.257812 2.46875 -3.65625 C 2.507812 -4.0625 2.550781 -4.488281 2.59375 -4.9375 C 2.644531 -5.78125 2.679688 -6.546875 2.703125 -7.234375 C 2.722656 -7.921875 2.734375 -8.6875 2.734375 -9.53125 C 2.691406 -11.21875 2.632812 -12.726562 2.5625 -14.0625 C 2.5 -15.394531 2.46875 -16.90625 2.46875 -18.59375 C 2.46875 -20.28125 2.5 -21.820312 2.5625 -23.21875 C 2.632812 -24.613281 2.671875 -26.15625 2.671875 -27.84375 C 2.671875 -28.957031 2.644531 -29.945312 2.59375 -30.8125 C 2.550781 -31.675781 2.53125 -32.664062 2.53125 -33.78125 C 2.53125 -34.9375 2.550781 -35.988281 2.59375 -36.9375 C 2.644531 -37.894531 2.671875 -38.953125 2.671875 -40.109375 C 2.671875 -40.816406 2.632812 -41.445312 2.5625 -42 C 2.5 -42.5625 2.488281 -43.195312 2.53125 -43.90625 C 2.53125 -44.570312 2.738281 -45.300781 3.15625 -46.09375 C 3.582031 -46.894531 4.550781 -47.296875 6.0625 -47.296875 C 6.769531 -47.296875 7.390625 -47.273438 7.921875 -47.234375 C 8.460938 -47.191406 9.085938 -47.171875 9.796875 -47.171875 C 11.484375 -47.128906 13.003906 -47.148438 14.359375 -47.234375 C 15.710938 -47.328125 17.234375 -47.375 18.921875 -47.375 C 20.210938 -47.375 21.613281 -47.25 23.125 -47 C 24.632812 -46.757812 26.085938 -46.21875 27.484375 -45.375 C 28.878906 -44.53125 30.085938 -43.238281 31.109375 -41.5 C 31.378906 -40.96875 31.582031 -40.503906 31.71875 -40.109375 C 31.800781 -39.835938 31.929688 -39.523438 32.109375 -39.171875 C 32.285156 -38.816406 32.460938 -38.351562 32.640625 -37.78125 C 32.816406 -37.25 32.945312 -36.484375 33.03125 -35.484375 C 33.125 -34.484375 33.191406 -33.484375 33.234375 -32.484375 C 33.285156 -31.484375 33.3125 -30.71875 33.3125 -30.1875 C 33.3125 -29.875 33.273438 -29.082031 33.203125 -27.8125 C 33.140625 -26.550781 32.863281 -25.097656 32.375 -23.453125 C 31.882812 -21.804688 31.019531 -20.226562 29.78125 -18.71875 C 29.601562 -18.457031 29.414062 -18.222656 29.21875 -18.015625 C 29.019531 -17.816406 28.804688 -17.609375 28.578125 -17.390625 C 28.398438 -17.210938 28.234375 -17.078125 28.078125 -16.984375 C 27.921875 -16.898438 27.753906 -16.742188 27.578125 -16.515625 C 27.535156 -16.472656 27.476562 -16.382812 27.40625 -16.25 C 27.34375 -16.125 27.3125 -15.972656 27.3125 -15.796875 C 27.3125 -15.484375 27.535156 -14.878906 27.984375 -13.984375 C 28.429688 -13.097656 28.894531 -12.210938 29.375 -11.328125 C 29.863281 -10.441406 30.175781 -9.816406 30.3125 -9.453125 C 30.53125 -9.015625 30.71875 -8.601562 30.875 -8.21875 C 31.03125 -7.84375 31.222656 -7.410156 31.453125 -6.921875 C 31.804688 -6.171875 32.160156 -5.492188 32.515625 -4.890625 C 32.867188 -4.296875 33.203125 -3.617188 33.515625 -2.859375 C 33.554688 -2.734375 33.609375 -2.566406 33.671875 -2.359375 C 33.742188 -2.160156 33.78125 -1.90625 33.78125 -1.59375 Z M 20.59375 -31.453125 C 20.59375 -32.023438 20.488281 -32.6875 20.28125 -33.4375 C 20.082031 -34.195312 19.726562 -34.851562 19.21875 -35.40625 C 18.707031 -35.96875 17.988281 -36.25 17.0625 -36.25 L 16.796875 -36.25 C 16.253906 -36.15625 15.832031 -36 15.53125 -35.78125 C 15.164062 -35.46875 14.914062 -35.144531 14.78125 -34.8125 C 14.65625 -34.476562 14.59375 -34.265625 14.59375 -34.171875 C 14.59375 -34.128906 14.566406 -33.816406 14.515625 -33.234375 C 14.472656 -32.660156 14.441406 -32.007812 14.421875 -31.28125 C 14.398438 -30.550781 14.378906 -29.894531 14.359375 -29.3125 C 14.335938 -28.738281 14.328125 -28.425781 14.328125 -28.375 C 14.328125 -27.53125 14.570312 -26.773438 15.0625 -26.109375 C 15.550781 -25.453125 16.28125 -25.125 17.25 -25.125 C 17.738281 -25.125 18.148438 -25.1875 18.484375 -25.3125 C 18.816406 -25.445312 19.070312 -25.601562 19.25 -25.78125 C 19.832031 -26.269531 20.203125 -27.015625 20.359375 -28.015625 C 20.515625 -29.015625 20.59375 -30.160156 20.59375 -31.453125 Z M 20.59375 -31.453125 "/></g></g><g style="fill:#ffffff;fill-opacity:1;"><g transform="translate(115.307397, 240.258421)"><path style="stroke:none" d="M 33.109375 -26.65625 C 33.109375 -26.03125 33.097656 -25.460938 33.078125 -24.953125 C 33.054688 -24.441406 33.046875 -23.851562 33.046875 -23.1875 C 33.046875 -22.476562 33.054688 -21.84375 33.078125 -21.28125 C 33.097656 -20.726562 33.085938 -20.078125 33.046875 -19.328125 C 33.046875 -18.660156 33.019531 -18.054688 32.96875 -17.515625 C 32.925781 -16.984375 32.90625 -16.382812 32.90625 -15.71875 C 32.90625 -14.832031 32.925781 -14.019531 32.96875 -13.28125 C 33.019531 -12.550781 33.046875 -11.722656 33.046875 -10.796875 C 33.046875 -9.859375 33.035156 -9.007812 33.015625 -8.25 C 32.992188 -7.5 32.984375 -6.632812 32.984375 -5.65625 L 32.984375 -3.734375 C 32.984375 -3.691406 32.957031 -3.4375 32.90625 -2.96875 C 32.863281 -2.5 32.734375 -2.085938 32.515625 -1.734375 C 31.804688 -0.753906 30.503906 -0.125 28.609375 0.15625 C 26.722656 0.445312 24.648438 0.59375 22.390625 0.59375 C 20.960938 0.59375 19.757812 0.582031 18.78125 0.5625 C 17.8125 0.539062 16.835938 0.414062 15.859375 0.1875 C 14.878906 -0.03125 13.65625 -0.40625 12.1875 -0.9375 C 11.65625 -1.15625 11.046875 -1.421875 10.359375 -1.734375 C 9.671875 -2.046875 9.0625 -2.421875 8.53125 -2.859375 C 7.820312 -3.484375 7.242188 -4.070312 6.796875 -4.625 C 6.347656 -5.1875 5.878906 -5.820312 5.390625 -6.53125 C 4.597656 -7.6875 3.929688 -8.726562 3.390625 -9.65625 C 2.859375 -10.59375 2.425781 -11.679688 2.09375 -12.921875 C 1.757812 -14.171875 1.484375 -15.835938 1.265625 -17.921875 C 1.222656 -18.410156 1.144531 -19.128906 1.03125 -20.078125 C 0.914062 -21.035156 0.859375 -22.160156 0.859375 -23.453125 C 0.859375 -24.296875 0.914062 -25.269531 1.03125 -26.375 C 1.144531 -27.488281 1.289062 -28.566406 1.46875 -29.609375 C 1.644531 -30.660156 1.785156 -31.53125 1.890625 -32.21875 C 2.003906 -32.90625 2.0625 -33.25 2.0625 -33.25 C 2.289062 -34.039062 2.535156 -34.757812 2.796875 -35.40625 C 3.066406 -36.050781 3.378906 -36.753906 3.734375 -37.515625 C 4.441406 -38.929688 4.992188 -39.90625 5.390625 -40.4375 C 5.796875 -40.96875 6.609375 -41.800781 7.828125 -42.9375 C 9.046875 -44.070312 10.410156 -44.992188 11.921875 -45.703125 C 12.859375 -46.191406 13.828125 -46.546875 14.828125 -46.765625 C 15.828125 -46.992188 16.789062 -47.195312 17.71875 -47.375 C 19.050781 -47.59375 20.25 -47.722656 21.3125 -47.765625 C 22.382812 -47.816406 23.140625 -47.84375 23.578125 -47.84375 L 24.25 -47.84375 C 24.34375 -47.84375 24.675781 -47.828125 25.25 -47.796875 C 25.820312 -47.773438 26.472656 -47.753906 27.203125 -47.734375 C 27.941406 -47.710938 28.609375 -47.691406 29.203125 -47.671875 C 29.804688 -47.648438 30.15625 -47.617188 30.25 -47.578125 C 30.5625 -47.390625 30.847656 -47.148438 31.109375 -46.859375 C 31.378906 -46.578125 31.515625 -46.125 31.515625 -45.5 C 31.515625 -45.1875 31.503906 -44.894531 31.484375 -44.625 C 31.460938 -44.363281 31.453125 -44.054688 31.453125 -43.703125 L 31.453125 -41.375 C 31.453125 -40.3125 31.453125 -39.300781 31.453125 -38.34375 C 31.453125 -37.382812 31.363281 -36.75 31.1875 -36.4375 C 31 -36.175781 30.796875 -35.96875 30.578125 -35.8125 C 30.359375 -35.65625 30.203125 -35.53125 30.109375 -35.4375 C 30.066406 -35.394531 29.910156 -35.316406 29.640625 -35.203125 C 29.378906 -35.097656 29.113281 -35.046875 28.84375 -35.046875 C 28.40625 -35.046875 28.003906 -35.15625 27.640625 -35.375 C 27.285156 -35.601562 26.867188 -35.78125 26.390625 -35.90625 C 26.203125 -35.957031 25.820312 -36.003906 25.25 -36.046875 C 24.675781 -36.085938 24.109375 -36.117188 23.546875 -36.140625 C 22.992188 -36.160156 22.609375 -36.171875 22.390625 -36.171875 C 20.523438 -36.171875 19.078125 -35.894531 18.046875 -35.34375 C 17.023438 -34.789062 16.1875 -33.976562 15.53125 -32.90625 C 15.34375 -32.6875 15.171875 -32.375 15.015625 -31.96875 C 14.867188 -31.570312 14.75 -31.265625 14.65625 -31.046875 C 14.613281 -30.867188 14.582031 -30.585938 14.5625 -30.203125 C 14.539062 -29.828125 14.484375 -29.398438 14.390625 -28.921875 C 14.296875 -28.296875 14.179688 -27.757812 14.046875 -27.3125 C 13.921875 -26.875 13.820312 -26.363281 13.75 -25.78125 C 13.6875 -25.207031 13.65625 -24.382812 13.65625 -23.3125 C 13.65625 -22.875 13.664062 -22.441406 13.6875 -22.015625 C 13.707031 -21.597656 13.71875 -21.144531 13.71875 -20.65625 L 13.71875 -19.984375 C 13.71875 -19.546875 13.738281 -19.210938 13.78125 -18.984375 C 13.832031 -18.765625 13.878906 -18.519531 13.921875 -18.25 C 13.921875 -18.207031 14.019531 -17.929688 14.21875 -17.421875 C 14.425781 -16.910156 14.648438 -16.351562 14.890625 -15.75 C 15.128906 -15.15625 15.359375 -14.613281 15.578125 -14.125 C 15.804688 -13.632812 15.941406 -13.347656 15.984375 -13.265625 C 16.078125 -13.128906 16.203125 -12.9375 16.359375 -12.6875 C 16.515625 -12.445312 16.75 -12.191406 17.0625 -11.921875 C 17.363281 -11.703125 17.769531 -11.476562 18.28125 -11.25 C 18.800781 -11.03125 19.390625 -10.921875 20.046875 -10.921875 C 21.691406 -10.921875 22.515625 -11.457031 22.515625 -12.53125 C 22.515625 -12.882812 22.492188 -13.203125 22.453125 -13.484375 C 22.410156 -13.773438 22.390625 -14.078125 22.390625 -14.390625 C 22.390625 -14.878906 22.410156 -15.3125 22.453125 -15.6875 C 22.492188 -16.0625 22.515625 -16.472656 22.515625 -16.921875 C 22.515625 -17.804688 22.210938 -18.40625 21.609375 -18.71875 C 21.015625 -19.03125 20.585938 -19.1875 20.328125 -19.1875 C 20.097656 -19.1875 19.894531 -19.148438 19.71875 -19.078125 C 19.539062 -19.015625 19.34375 -18.984375 19.125 -18.984375 C 18.8125 -18.984375 18.460938 -19.148438 18.078125 -19.484375 C 17.703125 -19.816406 17.515625 -20.296875 17.515625 -20.921875 C 17.515625 -21.765625 17.523438 -22.519531 17.546875 -23.1875 C 17.578125 -23.851562 17.613281 -24.609375 17.65625 -25.453125 C 17.65625 -25.890625 17.65625 -26.363281 17.65625 -26.875 C 17.65625 -27.394531 17.675781 -27.675781 17.71875 -27.71875 C 17.71875 -27.757812 17.726562 -27.898438 17.75 -28.140625 C 17.769531 -28.390625 17.847656 -28.601562 17.984375 -28.78125 C 18.210938 -29.175781 18.535156 -29.492188 18.953125 -29.734375 C 19.378906 -29.984375 19.945312 -30.109375 20.65625 -30.109375 C 21.320312 -30.109375 21.910156 -30.085938 22.421875 -30.046875 C 22.929688 -30.003906 23.5 -29.984375 24.125 -29.984375 C 24.914062 -29.984375 25.625 -29.984375 26.25 -29.984375 C 26.875 -29.984375 27.582031 -30.003906 28.375 -30.046875 C 28.6875 -30.085938 28.953125 -30.117188 29.171875 -30.140625 C 29.398438 -30.171875 29.671875 -30.1875 29.984375 -30.1875 C 31.085938 -30.1875 31.847656 -29.953125 32.265625 -29.484375 C 32.691406 -29.015625 32.9375 -28.5 33 -27.9375 C 33.070312 -27.382812 33.109375 -26.957031 33.109375 -26.65625 Z M 33.109375 -26.65625 "/></g></g><g style="fill:#ffffff;fill-opacity:1;"><g transform="translate(150.014183, 240.258421)"><path style="stroke:none" d="M 27.578125 -8.53125 C 27.578125 -8 27.554688 -7.519531 27.515625 -7.09375 C 27.472656 -6.675781 27.453125 -6.175781 27.453125 -5.59375 C 27.453125 -5.019531 27.460938 -4.507812 27.484375 -4.0625 C 27.503906 -3.613281 27.515625 -3.101562 27.515625 -2.53125 C 27.515625 -2.132812 27.367188 -1.601562 27.078125 -0.9375 C 26.796875 -0.269531 26.078125 0.0625 24.921875 0.0625 C 24.472656 0.0625 24.0625 0.0507812 23.6875 0.03125 C 23.3125 0.0078125 22.878906 0 22.390625 0 L 20.78125 0 C 19.988281 0 19.269531 -0.0195312 18.625 -0.0625 C 17.976562 -0.113281 17.253906 -0.140625 16.453125 -0.140625 C 16.015625 -0.140625 15.601562 -0.125 15.21875 -0.09375 C 14.84375 -0.0703125 14.410156 -0.0625 13.921875 -0.0625 L 6.796875 -0.0625 C 6.484375 -0.0195312 6.191406 0.0078125 5.921875 0.03125 C 5.660156 0.0507812 5.351562 0.0625 5 0.0625 C 4.59375 0.0625 4.035156 -0.113281 3.328125 -0.46875 C 2.617188 -0.820312 2.265625 -1.578125 2.265625 -2.734375 C 2.265625 -3.617188 2.296875 -4.414062 2.359375 -5.125 C 2.429688 -5.84375 2.46875 -6.625 2.46875 -7.46875 C 2.46875 -8.257812 2.457031 -8.96875 2.4375 -9.59375 C 2.414062 -10.21875 2.40625 -10.925781 2.40625 -11.71875 C 2.40625 -12.300781 2.4375 -12.820312 2.5 -13.28125 C 2.5625 -13.75 2.59375 -14.273438 2.59375 -14.859375 C 2.59375 -15.429688 2.570312 -15.941406 2.53125 -16.390625 C 2.488281 -16.835938 2.46875 -17.347656 2.46875 -17.921875 C 2.46875 -19.035156 2.488281 -20.023438 2.53125 -20.890625 C 2.570312 -21.753906 2.59375 -22.742188 2.59375 -23.859375 C 2.59375 -24.878906 2.570312 -25.875 2.53125 -26.84375 C 2.488281 -27.820312 2.46875 -28.800781 2.46875 -29.78125 C 2.425781 -31.15625 2.4375 -32.382812 2.5 -33.46875 C 2.5625 -34.5625 2.59375 -35.796875 2.59375 -37.171875 C 2.59375 -38.148438 2.570312 -39.015625 2.53125 -39.765625 C 2.488281 -40.523438 2.46875 -41.375 2.46875 -42.3125 C 2.46875 -44.257812 2.664062 -45.578125 3.0625 -46.265625 C 3.46875 -46.953125 4.421875 -47.296875 5.921875 -47.296875 C 6.816406 -47.296875 7.617188 -47.25 8.328125 -47.15625 C 9.035156 -47.070312 9.8125 -47.03125 10.65625 -47.03125 C 11.0625 -47.03125 11.472656 -47.039062 11.890625 -47.0625 C 12.316406 -47.09375 12.726562 -47.109375 13.125 -47.109375 C 14.1875 -47.109375 15.148438 -47.070312 16.015625 -47 C 16.890625 -46.9375 17.859375 -46.90625 18.921875 -46.90625 C 19.410156 -46.90625 19.84375 -46.925781 20.21875 -46.96875 C 20.59375 -47.007812 21.003906 -47.03125 21.453125 -47.03125 L 22.78125 -47.03125 C 23.132812 -47.03125 23.46875 -47.039062 23.78125 -47.0625 C 24.09375 -47.09375 24.445312 -47.109375 24.84375 -47.109375 C 25.875 -47.109375 26.488281 -46.816406 26.6875 -46.234375 C 26.882812 -45.660156 26.984375 -45.195312 26.984375 -44.84375 C 26.984375 -44.257812 26.945312 -43.691406 26.875 -43.140625 C 26.8125 -42.585938 26.78125 -42.019531 26.78125 -41.4375 C 26.78125 -40.863281 26.789062 -40.175781 26.8125 -39.375 C 26.832031 -38.570312 26.675781 -37.878906 26.34375 -37.296875 C 26.007812 -36.722656 25.289062 -36.4375 24.1875 -36.4375 L 23.453125 -36.4375 C 23.054688 -36.4375 22.691406 -36.425781 22.359375 -36.40625 C 22.023438 -36.382812 21.65625 -36.375 21.25 -36.375 C 20.71875 -36.375 20.238281 -36.40625 19.8125 -36.46875 C 19.394531 -36.539062 18.898438 -36.578125 18.328125 -36.578125 C 16.503906 -36.578125 15.414062 -36.296875 15.0625 -35.734375 C 14.707031 -35.179688 14.53125 -34.328125 14.53125 -33.171875 C 14.53125 -30.867188 15.304688 -29.71875 16.859375 -29.71875 C 17.210938 -29.71875 17.546875 -29.738281 17.859375 -29.78125 C 18.171875 -29.820312 18.503906 -29.84375 18.859375 -29.84375 L 18.984375 -29.84375 C 19.472656 -29.84375 19.914062 -29.820312 20.3125 -29.78125 C 20.71875 -29.738281 21.144531 -29.71875 21.59375 -29.71875 C 21.988281 -29.71875 22.351562 -29.726562 22.6875 -29.75 C 23.019531 -29.769531 23.363281 -29.78125 23.71875 -29.78125 C 24.65625 -29.78125 25.300781 -29.613281 25.65625 -29.28125 C 26.007812 -28.945312 26.207031 -28.554688 26.25 -28.109375 C 26.289062 -27.671875 26.3125 -27.296875 26.3125 -26.984375 C 26.3125 -26.453125 26.300781 -25.984375 26.28125 -25.578125 C 26.257812 -25.179688 26.25 -24.71875 26.25 -24.1875 C 26.25 -23.695312 26.257812 -23.25 26.28125 -22.84375 C 26.300781 -22.445312 26.3125 -22.003906 26.3125 -21.515625 C 26.3125 -20.671875 26.132812 -20.050781 25.78125 -19.65625 C 25.425781 -19.257812 25.035156 -19.015625 24.609375 -18.921875 C 24.191406 -18.828125 23.828125 -18.78125 23.515625 -18.78125 C 22.492188 -18.78125 21.570312 -18.828125 20.75 -18.921875 C 19.925781 -19.015625 19.003906 -19.0625 17.984375 -19.0625 C 16.785156 -19.0625 15.953125 -18.859375 15.484375 -18.453125 C 15.023438 -18.054688 14.757812 -17.578125 14.6875 -17.015625 C 14.625 -16.460938 14.59375 -15.941406 14.59375 -15.453125 L 14.59375 -14.65625 C 14.59375 -14.476562 14.601562 -14.15625 14.625 -13.6875 C 14.644531 -13.21875 14.675781 -12.875 14.71875 -12.65625 C 15.207031 -11.726562 15.738281 -11.25 16.3125 -11.21875 C 16.894531 -11.195312 17.8125 -11.144531 19.0625 -11.0625 C 19.675781 -11.019531 20.21875 -10.960938 20.6875 -10.890625 C 21.15625 -10.828125 21.675781 -10.796875 22.25 -10.796875 C 22.78125 -10.796875 23.253906 -10.828125 23.671875 -10.890625 C 24.097656 -10.960938 24.554688 -11 25.046875 -11 C 25.398438 -11 25.898438 -10.851562 26.546875 -10.5625 C 27.191406 -10.269531 27.535156 -9.59375 27.578125 -8.53125 Z M 27.578125 -8.53125 "/></g></g><g style="fill:#ffffff;fill-opacity:1;"><g transform="translate(179.125252, 240.258421)"><path style="stroke:none" d="M 33.78125 -1.796875 C 33.78125 -1.046875 33.5 -0.59375 32.9375 -0.4375 C 32.382812 -0.28125 31.890625 -0.203125 31.453125 -0.203125 C 30.867188 -0.203125 30.34375 -0.222656 29.875 -0.265625 C 29.414062 -0.304688 28.875 -0.328125 28.25 -0.328125 C 27.3125 -0.378906 26.476562 -0.367188 25.75 -0.296875 C 25.019531 -0.234375 24.207031 -0.203125 23.3125 -0.203125 C 22.601562 -0.203125 22.125 -0.566406 21.875 -1.296875 C 21.632812 -2.035156 21.335938 -2.867188 20.984375 -3.796875 C 20.671875 -4.554688 20.359375 -5.222656 20.046875 -5.796875 C 19.742188 -6.367188 19.4375 -7.035156 19.125 -7.796875 C 18.8125 -8.546875 18.566406 -9.222656 18.390625 -9.828125 C 18.210938 -10.429688 17.96875 -11.085938 17.65625 -11.796875 C 17.4375 -12.367188 17.191406 -12.875 16.921875 -13.3125 C 16.648438 -13.757812 16.40625 -14.273438 16.1875 -14.859375 C 15.96875 -15.390625 15.789062 -15.863281 15.65625 -16.28125 C 15.519531 -16.707031 15.34375 -17.207031 15.125 -17.78125 C 14.945312 -18.40625 14.710938 -19.09375 14.421875 -19.84375 C 14.128906 -20.601562 13.921875 -20.960938 13.796875 -20.921875 C 13.617188 -20.921875 13.53125 -20.722656 13.53125 -20.328125 C 13.53125 -19.878906 13.5625 -19.488281 13.625 -19.15625 C 13.6875 -18.820312 13.742188 -18.429688 13.796875 -17.984375 C 13.972656 -16.523438 14.0625 -14.992188 14.0625 -13.390625 C 14.0625 -12.273438 14.015625 -11.296875 13.921875 -10.453125 C 13.835938 -9.609375 13.816406 -8.632812 13.859375 -7.53125 C 13.859375 -6.507812 13.910156 -5.585938 14.015625 -4.765625 C 14.128906 -3.941406 14.1875 -3.019531 14.1875 -2 C 14.1875 -1.15625 13.972656 -0.617188 13.546875 -0.390625 C 13.128906 -0.171875 12.566406 -0.0625 11.859375 -0.0625 C 11.015625 -0.0625 10.257812 -0.0820312 9.59375 -0.125 C 8.925781 -0.175781 8.148438 -0.203125 7.265625 -0.203125 C 6.679688 -0.203125 6.144531 -0.164062 5.65625 -0.09375 C 5.175781 -0.03125 4.625 0 4 0 C 3.332031 0 2.875 -0.1875 2.625 -0.5625 C 2.382812 -0.9375 2.253906 -1.3125 2.234375 -1.6875 C 2.210938 -2.070312 2.203125 -2.285156 2.203125 -2.328125 C 2.203125 -3.753906 2.28125 -5.03125 2.4375 -6.15625 C 2.59375 -7.289062 2.644531 -8.546875 2.59375 -9.921875 C 2.59375 -10.367188 2.582031 -10.75 2.5625 -11.0625 C 2.539062 -11.375 2.53125 -11.726562 2.53125 -12.125 C 2.53125 -13.0625 2.519531 -13.894531 2.5 -14.625 C 2.476562 -15.351562 2.46875 -16.164062 2.46875 -17.0625 C 2.46875 -17.851562 2.46875 -18.570312 2.46875 -19.21875 C 2.46875 -19.863281 2.488281 -20.585938 2.53125 -21.390625 C 2.570312 -22.003906 2.613281 -22.566406 2.65625 -23.078125 C 2.707031 -23.597656 2.734375 -24.164062 2.734375 -24.78125 C 2.734375 -25.40625 2.695312 -25.972656 2.625 -26.484375 C 2.5625 -26.992188 2.53125 -27.535156 2.53125 -28.109375 L 2.53125 -31.578125 C 2.53125 -32.828125 2.539062 -33.9375 2.5625 -34.90625 C 2.582031 -35.882812 2.617188 -37 2.671875 -38.25 C 2.710938 -39.53125 2.6875 -40.679688 2.59375 -41.703125 C 2.507812 -42.722656 2.46875 -43.878906 2.46875 -45.171875 C 2.46875 -45.347656 2.53125 -45.679688 2.65625 -46.171875 C 2.789062 -46.660156 3.238281 -46.972656 4 -47.109375 L 4.328125 -47.109375 C 4.597656 -47.109375 4.84375 -47.082031 5.0625 -47.03125 C 5.28125 -46.988281 5.546875 -46.96875 5.859375 -46.96875 C 6.304688 -46.925781 6.707031 -46.90625 7.0625 -46.90625 C 7.414062 -46.90625 7.816406 -46.90625 8.265625 -46.90625 C 8.972656 -46.90625 9.613281 -46.9375 10.1875 -47 C 10.769531 -47.070312 11.414062 -47.109375 12.125 -47.109375 C 12.476562 -47.109375 12.753906 -47.050781 12.953125 -46.9375 C 13.160156 -46.820312 13.351562 -46.675781 13.53125 -46.5 C 13.832031 -46.28125 14.179688 -45.703125 14.578125 -44.765625 C 14.984375 -43.835938 15.375 -42.914062 15.75 -42 C 16.132812 -41.09375 16.367188 -40.503906 16.453125 -40.234375 C 16.679688 -39.796875 16.867188 -39.398438 17.015625 -39.046875 C 17.171875 -38.691406 17.335938 -38.269531 17.515625 -37.78125 C 17.691406 -37.46875 17.859375 -37.175781 18.015625 -36.90625 C 18.171875 -36.644531 18.316406 -36.335938 18.453125 -35.984375 C 18.585938 -35.671875 18.695312 -35.359375 18.78125 -35.046875 C 18.875 -34.734375 19.007812 -34.398438 19.1875 -34.046875 C 19.28125 -33.773438 19.390625 -33.539062 19.515625 -33.34375 C 19.648438 -33.144531 19.765625 -32.910156 19.859375 -32.640625 C 20.078125 -32.203125 20.238281 -31.800781 20.34375 -31.4375 C 20.457031 -31.082031 20.601562 -30.664062 20.78125 -30.1875 C 21.007812 -29.5625 21.242188 -28.835938 21.484375 -28.015625 C 21.734375 -27.191406 21.945312 -26.800781 22.125 -26.84375 C 22.300781 -26.894531 22.398438 -27.207031 22.421875 -27.78125 C 22.441406 -28.363281 22.453125 -28.875 22.453125 -29.3125 C 22.453125 -29.800781 22.414062 -30.253906 22.34375 -30.671875 C 22.28125 -31.097656 22.25 -31.578125 22.25 -32.109375 C 22.25 -32.597656 22.269531 -33.050781 22.3125 -33.46875 C 22.363281 -33.894531 22.390625 -34.375 22.390625 -34.90625 C 22.390625 -36.332031 22.332031 -37.632812 22.21875 -38.8125 C 22.101562 -39.988281 22.046875 -41.304688 22.046875 -42.765625 C 22.046875 -43.035156 22.054688 -43.554688 22.078125 -44.328125 C 22.109375 -45.109375 22.210938 -45.65625 22.390625 -45.96875 C 22.515625 -46.144531 22.632812 -46.273438 22.75 -46.359375 C 22.863281 -46.453125 22.960938 -46.523438 23.046875 -46.578125 C 23.179688 -46.660156 23.40625 -46.769531 23.71875 -46.90625 C 24.03125 -47.039062 24.382812 -47.109375 24.78125 -47.109375 C 25.269531 -47.109375 25.703125 -47.082031 26.078125 -47.03125 C 26.460938 -46.988281 26.875 -46.96875 27.3125 -46.96875 L 29.84375 -46.96875 C 30.25 -46.96875 30.601562 -46.976562 30.90625 -47 C 31.21875 -47.019531 31.578125 -47.03125 31.984375 -47.03125 C 33.179688 -47.03125 33.78125 -46.410156 33.78125 -45.171875 C 33.78125 -44.191406 33.734375 -43.289062 33.640625 -42.46875 C 33.554688 -41.644531 33.515625 -40.722656 33.515625 -39.703125 C 33.515625 -38.242188 33.535156 -36.9375 33.578125 -35.78125 C 33.617188 -34.625 33.640625 -33.3125 33.640625 -31.84375 C 33.640625 -30.289062 33.609375 -28.878906 33.546875 -27.609375 C 33.484375 -26.347656 33.453125 -24.941406 33.453125 -23.390625 C 33.453125 -21.828125 33.492188 -20.425781 33.578125 -19.1875 C 33.671875 -17.945312 33.71875 -16.546875 33.71875 -14.984375 C 33.71875 -13.609375 33.671875 -12.34375 33.578125 -11.1875 C 33.492188 -10.03125 33.453125 -8.742188 33.453125 -7.328125 C 33.453125 -6.617188 33.453125 -5.972656 33.453125 -5.390625 C 33.453125 -4.816406 33.492188 -4.175781 33.578125 -3.46875 C 33.578125 -3.15625 33.609375 -2.875 33.671875 -2.625 C 33.742188 -2.382812 33.78125 -2.109375 33.78125 -1.796875 Z M 33.78125 -1.796875 "/></g></g><g style="fill:#ffffff;fill-opacity:1;"><g transform="translate(215.230967, 240.258421)"><path style="stroke:none" d="M 25.65625 -37.640625 C 25.65625 -37.378906 25.566406 -36.925781 25.390625 -36.28125 C 25.210938 -35.632812 24.609375 -35.3125 23.578125 -35.3125 C 23.273438 -35.3125 22.988281 -35.320312 22.71875 -35.34375 C 22.445312 -35.363281 22.132812 -35.375 21.78125 -35.375 C 20.8125 -35.375 20.144531 -35.117188 19.78125 -34.609375 C 19.425781 -34.097656 19.25 -33.175781 19.25 -31.84375 C 19.25 -30.738281 19.28125 -29.738281 19.34375 -28.84375 C 19.414062 -27.957031 19.453125 -26.9375 19.453125 -25.78125 C 19.453125 -24.40625 19.429688 -23.179688 19.390625 -22.109375 C 19.347656 -21.046875 19.328125 -19.828125 19.328125 -18.453125 C 19.328125 -17.210938 19.347656 -16.101562 19.390625 -15.125 C 19.429688 -14.144531 19.453125 -13.035156 19.453125 -11.796875 C 19.453125 -11.085938 19.441406 -10.382812 19.421875 -9.6875 C 19.398438 -9 19.390625 -8.300781 19.390625 -7.59375 C 19.390625 -7.019531 19.398438 -6.488281 19.421875 -6 C 19.441406 -5.507812 19.472656 -4.953125 19.515625 -4.328125 C 19.566406 -3.972656 19.613281 -3.648438 19.65625 -3.359375 C 19.695312 -3.078125 19.71875 -2.757812 19.71875 -2.40625 C 19.71875 -1.6875 19.550781 -1.171875 19.21875 -0.859375 C 18.882812 -0.554688 18.515625 -0.359375 18.109375 -0.265625 C 17.710938 -0.179688 17.40625 -0.140625 17.1875 -0.140625 C 16.789062 -0.140625 16.4375 -0.148438 16.125 -0.171875 C 15.8125 -0.191406 15.457031 -0.222656 15.0625 -0.265625 C 14.476562 -0.304688 13.972656 -0.328125 13.546875 -0.328125 C 13.128906 -0.328125 12.632812 -0.328125 12.0625 -0.328125 C 11.613281 -0.328125 11.1875 -0.304688 10.78125 -0.265625 C 10.382812 -0.222656 9.941406 -0.203125 9.453125 -0.203125 C 8.742188 -0.203125 8.175781 -0.378906 7.75 -0.734375 C 7.332031 -1.085938 7.125 -1.820312 7.125 -2.9375 C 7.125 -4.039062 7.179688 -5.015625 7.296875 -5.859375 C 7.410156 -6.703125 7.46875 -7.679688 7.46875 -8.796875 C 7.46875 -9.816406 7.429688 -10.75 7.359375 -11.59375 C 7.296875 -12.4375 7.265625 -13.367188 7.265625 -14.390625 C 7.265625 -15.585938 7.316406 -16.675781 7.421875 -17.65625 C 7.535156 -18.632812 7.59375 -19.722656 7.59375 -20.921875 C 7.59375 -21.804688 7.554688 -22.59375 7.484375 -23.28125 C 7.421875 -23.96875 7.367188 -24.734375 7.328125 -25.578125 C 7.285156 -26.960938 7.328125 -28.242188 7.453125 -29.421875 C 7.585938 -30.597656 7.632812 -31.640625 7.59375 -32.546875 C 7.550781 -33.453125 7.238281 -34.148438 6.65625 -34.640625 C 6.53125 -34.816406 6.410156 -34.914062 6.296875 -34.9375 C 6.179688 -34.96875 6.101562 -35.003906 6.0625 -35.046875 C 5.84375 -35.179688 5.566406 -35.257812 5.234375 -35.28125 C 4.898438 -35.300781 4.617188 -35.3125 4.390625 -35.3125 C 4.128906 -35.3125 3.882812 -35.300781 3.65625 -35.28125 C 3.4375 -35.257812 3.21875 -35.25 3 -35.25 C 2.113281 -35.25 1.515625 -35.476562 1.203125 -35.9375 C 0.890625 -36.40625 0.734375 -36.84375 0.734375 -37.25 C 0.734375 -38.09375 0.753906 -38.847656 0.796875 -39.515625 C 0.835938 -40.179688 0.859375 -40.9375 0.859375 -41.78125 C 0.859375 -42.351562 0.835938 -42.859375 0.796875 -43.296875 C 0.753906 -43.742188 0.734375 -44.257812 0.734375 -44.84375 C 0.734375 -45.6875 0.910156 -46.273438 1.265625 -46.609375 C 1.617188 -46.941406 2.21875 -47.109375 3.0625 -47.109375 C 3.820312 -47.109375 4.507812 -47.082031 5.125 -47.03125 C 5.75 -46.988281 6.441406 -46.96875 7.203125 -46.96875 C 8.347656 -46.96875 9.488281 -47 10.625 -47.0625 C 11.757812 -47.132812 12.878906 -47.171875 13.984375 -47.171875 L 14.71875 -47.171875 C 15.65625 -47.171875 16.5 -47.144531 17.25 -47.09375 C 18.007812 -47.050781 18.878906 -47.03125 19.859375 -47.03125 C 20.472656 -47.03125 21.015625 -47.050781 21.484375 -47.09375 C 21.953125 -47.144531 22.472656 -47.171875 23.046875 -47.171875 C 24.335938 -47.171875 25.09375 -46.78125 25.3125 -46 C 25.539062 -45.226562 25.65625 -44.394531 25.65625 -43.5 C 25.65625 -42.832031 25.640625 -42.242188 25.609375 -41.734375 C 25.585938 -41.222656 25.578125 -40.660156 25.578125 -40.046875 C 25.578125 -39.597656 25.585938 -39.195312 25.609375 -38.84375 C 25.640625 -38.488281 25.65625 -38.085938 25.65625 -37.640625 Z M 25.65625 -37.640625 "/></g></g><g style="fill:#ffffff;fill-opacity:1;"><g transform="translate(241.610794, 240.258421)"><path style="stroke:none" d="M 14.71875 -2.203125 C 14.71875 -1.796875 14.617188 -1.347656 14.421875 -0.859375 C 14.222656 -0.378906 13.632812 -0.140625 12.65625 -0.140625 C 12.164062 -0.140625 11.707031 -0.160156 11.28125 -0.203125 C 10.863281 -0.242188 10.410156 -0.265625 9.921875 -0.265625 C 9.078125 -0.265625 8.332031 -0.226562 7.6875 -0.15625 C 7.050781 -0.09375 6.332031 -0.0625 5.53125 -0.0625 C 4.414062 -0.0625 3.644531 -0.207031 3.21875 -0.5 C 2.800781 -0.789062 2.5625 -1.164062 2.5 -1.625 C 2.4375 -2.09375 2.40625 -2.59375 2.40625 -3.125 L 2.40625 -5.859375 C 2.40625 -6.617188 2.4375 -7.316406 2.5 -7.953125 C 2.5625 -8.597656 2.59375 -9.300781 2.59375 -10.0625 L 2.59375 -12.796875 C 2.59375 -14.484375 2.5625 -16.003906 2.5 -17.359375 C 2.4375 -18.710938 2.40625 -20.210938 2.40625 -21.859375 L 2.40625 -30.109375 C 2.40625 -31.441406 2.4375 -32.628906 2.5 -33.671875 C 2.5625 -34.722656 2.59375 -35.890625 2.59375 -37.171875 L 2.59375 -41.78125 C 2.59375 -42.351562 2.5625 -42.859375 2.5 -43.296875 C 2.4375 -43.742188 2.40625 -44.257812 2.40625 -44.84375 C 2.40625 -45.945312 2.710938 -46.597656 3.328125 -46.796875 C 3.953125 -47.003906 4.640625 -47.109375 5.390625 -47.109375 C 6.148438 -47.109375 6.851562 -47.09375 7.5 -47.0625 C 8.144531 -47.039062 8.84375 -47.03125 9.59375 -47.03125 C 10.21875 -47.03125 10.796875 -47.050781 11.328125 -47.09375 C 11.859375 -47.144531 12.457031 -47.171875 13.125 -47.171875 C 13.832031 -47.171875 14.273438 -46.859375 14.453125 -46.234375 C 14.628906 -45.617188 14.71875 -45.109375 14.71875 -44.703125 C 14.71875 -44.171875 14.695312 -43.691406 14.65625 -43.265625 C 14.613281 -42.847656 14.570312 -42.375 14.53125 -41.84375 C 14.476562 -41 14.460938 -40.253906 14.484375 -39.609375 C 14.515625 -38.960938 14.53125 -38.21875 14.53125 -37.375 L 14.53125 -27.046875 C 14.53125 -26.296875 14.503906 -25.609375 14.453125 -24.984375 C 14.410156 -24.359375 14.390625 -23.671875 14.390625 -22.921875 L 14.390625 -19.65625 C 14.390625 -18.320312 14.429688 -17.132812 14.515625 -16.09375 C 14.609375 -15.050781 14.65625 -13.863281 14.65625 -12.53125 C 14.65625 -11.550781 14.617188 -10.660156 14.546875 -9.859375 C 14.484375 -9.054688 14.453125 -8.171875 14.453125 -7.203125 C 14.453125 -6.265625 14.492188 -5.425781 14.578125 -4.6875 C 14.671875 -3.957031 14.71875 -3.128906 14.71875 -2.203125 Z M 14.71875 -2.203125 "/></g></g><g style="fill:#ffffff;fill-opacity:1;"><g transform="translate(258.264732, 240.258421)"><path style="stroke:none" d="M 33.78125 -1.796875 C 33.78125 -1.046875 33.5 -0.59375 32.9375 -0.4375 C 32.382812 -0.28125 31.890625 -0.203125 31.453125 -0.203125 C 30.867188 -0.203125 30.34375 -0.222656 29.875 -0.265625 C 29.414062 -0.304688 28.875 -0.328125 28.25 -0.328125 C 27.3125 -0.378906 26.476562 -0.367188 25.75 -0.296875 C 25.019531 -0.234375 24.207031 -0.203125 23.3125 -0.203125 C 22.601562 -0.203125 22.125 -0.566406 21.875 -1.296875 C 21.632812 -2.035156 21.335938 -2.867188 20.984375 -3.796875 C 20.671875 -4.554688 20.359375 -5.222656 20.046875 -5.796875 C 19.742188 -6.367188 19.4375 -7.035156 19.125 -7.796875 C 18.8125 -8.546875 18.566406 -9.222656 18.390625 -9.828125 C 18.210938 -10.429688 17.96875 -11.085938 17.65625 -11.796875 C 17.4375 -12.367188 17.191406 -12.875 16.921875 -13.3125 C 16.648438 -13.757812 16.40625 -14.273438 16.1875 -14.859375 C 15.96875 -15.390625 15.789062 -15.863281 15.65625 -16.28125 C 15.519531 -16.707031 15.34375 -17.207031 15.125 -17.78125 C 14.945312 -18.40625 14.710938 -19.09375 14.421875 -19.84375 C 14.128906 -20.601562 13.921875 -20.960938 13.796875 -20.921875 C 13.617188 -20.921875 13.53125 -20.722656 13.53125 -20.328125 C 13.53125 -19.878906 13.5625 -19.488281 13.625 -19.15625 C 13.6875 -18.820312 13.742188 -18.429688 13.796875 -17.984375 C 13.972656 -16.523438 14.0625 -14.992188 14.0625 -13.390625 C 14.0625 -12.273438 14.015625 -11.296875 13.921875 -10.453125 C 13.835938 -9.609375 13.816406 -8.632812 13.859375 -7.53125 C 13.859375 -6.507812 13.910156 -5.585938 14.015625 -4.765625 C 14.128906 -3.941406 14.1875 -3.019531 14.1875 -2 C 14.1875 -1.15625 13.972656 -0.617188 13.546875 -0.390625 C 13.128906 -0.171875 12.566406 -0.0625 11.859375 -0.0625 C 11.015625 -0.0625 10.257812 -0.0820312 9.59375 -0.125 C 8.925781 -0.175781 8.148438 -0.203125 7.265625 -0.203125 C 6.679688 -0.203125 6.144531 -0.164062 5.65625 -0.09375 C 5.175781 -0.03125 4.625 0 4 0 C 3.332031 0 2.875 -0.1875 2.625 -0.5625 C 2.382812 -0.9375 2.253906 -1.3125 2.234375 -1.6875 C 2.210938 -2.070312 2.203125 -2.285156 2.203125 -2.328125 C 2.203125 -3.753906 2.28125 -5.03125 2.4375 -6.15625 C 2.59375 -7.289062 2.644531 -8.546875 2.59375 -9.921875 C 2.59375 -10.367188 2.582031 -10.75 2.5625 -11.0625 C 2.539062 -11.375 2.53125 -11.726562 2.53125 -12.125 C 2.53125 -13.0625 2.519531 -13.894531 2.5 -14.625 C 2.476562 -15.351562 2.46875 -16.164062 2.46875 -17.0625 C 2.46875 -17.851562 2.46875 -18.570312 2.46875 -19.21875 C 2.46875 -19.863281 2.488281 -20.585938 2.53125 -21.390625 C 2.570312 -22.003906 2.613281 -22.566406 2.65625 -23.078125 C 2.707031 -23.597656 2.734375 -24.164062 2.734375 -24.78125 C 2.734375 -25.40625 2.695312 -25.972656 2.625 -26.484375 C 2.5625 -26.992188 2.53125 -27.535156 2.53125 -28.109375 L 2.53125 -31.578125 C 2.53125 -32.828125 2.539062 -33.9375 2.5625 -34.90625 C 2.582031 -35.882812 2.617188 -37 2.671875 -38.25 C 2.710938 -39.53125 2.6875 -40.679688 2.59375 -41.703125 C 2.507812 -42.722656 2.46875 -43.878906 2.46875 -45.171875 C 2.46875 -45.347656 2.53125 -45.679688 2.65625 -46.171875 C 2.789062 -46.660156 3.238281 -46.972656 4 -47.109375 L 4.328125 -47.109375 C 4.597656 -47.109375 4.84375 -47.082031 5.0625 -47.03125 C 5.28125 -46.988281 5.546875 -46.96875 5.859375 -46.96875 C 6.304688 -46.925781 6.707031 -46.90625 7.0625 -46.90625 C 7.414062 -46.90625 7.816406 -46.90625 8.265625 -46.90625 C 8.972656 -46.90625 9.613281 -46.9375 10.1875 -47 C 10.769531 -47.070312 11.414062 -47.109375 12.125 -47.109375 C 12.476562 -47.109375 12.753906 -47.050781 12.953125 -46.9375 C 13.160156 -46.820312 13.351562 -46.675781 13.53125 -46.5 C 13.832031 -46.28125 14.179688 -45.703125 14.578125 -44.765625 C 14.984375 -43.835938 15.375 -42.914062 15.75 -42 C 16.132812 -41.09375 16.367188 -40.503906 16.453125 -40.234375 C 16.679688 -39.796875 16.867188 -39.398438 17.015625 -39.046875 C 17.171875 -38.691406 17.335938 -38.269531 17.515625 -37.78125 C 17.691406 -37.46875 17.859375 -37.175781 18.015625 -36.90625 C 18.171875 -36.644531 18.316406 -36.335938 18.453125 -35.984375 C 18.585938 -35.671875 18.695312 -35.359375 18.78125 -35.046875 C 18.875 -34.734375 19.007812 -34.398438 19.1875 -34.046875 C 19.28125 -33.773438 19.390625 -33.539062 19.515625 -33.34375 C 19.648438 -33.144531 19.765625 -32.910156 19.859375 -32.640625 C 20.078125 -32.203125 20.238281 -31.800781 20.34375 -31.4375 C 20.457031 -31.082031 20.601562 -30.664062 20.78125 -30.1875 C 21.007812 -29.5625 21.242188 -28.835938 21.484375 -28.015625 C 21.734375 -27.191406 21.945312 -26.800781 22.125 -26.84375 C 22.300781 -26.894531 22.398438 -27.207031 22.421875 -27.78125 C 22.441406 -28.363281 22.453125 -28.875 22.453125 -29.3125 C 22.453125 -29.800781 22.414062 -30.253906 22.34375 -30.671875 C 22.28125 -31.097656 22.25 -31.578125 22.25 -32.109375 C 22.25 -32.597656 22.269531 -33.050781 22.3125 -33.46875 C 22.363281 -33.894531 22.390625 -34.375 22.390625 -34.90625 C 22.390625 -36.332031 22.332031 -37.632812 22.21875 -38.8125 C 22.101562 -39.988281 22.046875 -41.304688 22.046875 -42.765625 C 22.046875 -43.035156 22.054688 -43.554688 22.078125 -44.328125 C 22.109375 -45.109375 22.210938 -45.65625 22.390625 -45.96875 C 22.515625 -46.144531 22.632812 -46.273438 22.75 -46.359375 C 22.863281 -46.453125 22.960938 -46.523438 23.046875 -46.578125 C 23.179688 -46.660156 23.40625 -46.769531 23.71875 -46.90625 C 24.03125 -47.039062 24.382812 -47.109375 24.78125 -47.109375 C 25.269531 -47.109375 25.703125 -47.082031 26.078125 -47.03125 C 26.460938 -46.988281 26.875 -46.96875 27.3125 -46.96875 L 29.84375 -46.96875 C 30.25 -46.96875 30.601562 -46.976562 30.90625 -47 C 31.21875 -47.019531 31.578125 -47.03125 31.984375 -47.03125 C 33.179688 -47.03125 33.78125 -46.410156 33.78125 -45.171875 C 33.78125 -44.191406 33.734375 -43.289062 33.640625 -42.46875 C 33.554688 -41.644531 33.515625 -40.722656 33.515625 -39.703125 C 33.515625 -38.242188 33.535156 -36.9375 33.578125 -35.78125 C 33.617188 -34.625 33.640625 -33.3125 33.640625 -31.84375 C 33.640625 -30.289062 33.609375 -28.878906 33.546875 -27.609375 C 33.484375 -26.347656 33.453125 -24.941406 33.453125 -23.390625 C 33.453125 -21.828125 33.492188 -20.425781 33.578125 -19.1875 C 33.671875 -17.945312 33.71875 -16.546875 33.71875 -14.984375 C 33.71875 -13.609375 33.671875 -12.34375 33.578125 -11.1875 C 33.492188 -10.03125 33.453125 -8.742188 33.453125 -7.328125 C 33.453125 -6.617188 33.453125 -5.972656 33.453125 -5.390625 C 33.453125 -4.816406 33.492188 -4.175781 33.578125 -3.46875 C 33.578125 -3.15625 33.609375 -2.875 33.671875 -2.625 C 33.742188 -2.382812 33.78125 -2.109375 33.78125 -1.796875 Z M 33.78125 -1.796875 "/></g></g><g style="fill:#ffffff;fill-opacity:1;"><g transform="translate(294.370448, 240.258421)"><path style="stroke:none" d="M 33.109375 -2.671875 C 33.109375 -2.671875 33.0625 -2.445312 32.96875 -2 C 32.882812 -1.550781 32.6875 -1.101562 32.375 -0.65625 C 32.0625 -0.21875 31.570312 0 30.90625 0 C 30.113281 0 29.394531 -0.03125 28.75 -0.09375 C 28.101562 -0.164062 27.378906 -0.203125 26.578125 -0.203125 C 25.910156 -0.203125 25.3125 -0.175781 24.78125 -0.125 C 24.25 -0.0820312 23.648438 -0.0625 22.984375 -0.0625 C 22.179688 -0.0625 21.632812 -0.21875 21.34375 -0.53125 C 21.0625 -0.84375 20.910156 -1.195312 20.890625 -1.59375 C 20.867188 -2 20.832031 -2.3125 20.78125 -2.53125 C 20.78125 -2.75 20.75 -3.210938 20.6875 -3.921875 C 20.625 -4.640625 20.546875 -5.363281 20.453125 -6.09375 C 20.367188 -6.832031 20.210938 -7.289062 19.984375 -7.46875 C 19.804688 -7.644531 19.726562 -7.71875 19.75 -7.6875 C 19.769531 -7.664062 19.671875 -7.722656 19.453125 -7.859375 C 19.410156 -7.898438 18.890625 -7.929688 17.890625 -7.953125 C 16.890625 -7.984375 16.007812 -8 15.25 -8 C 14.007812 -8 13.300781 -7.832031 13.125 -7.5 C 12.945312 -7.164062 12.789062 -6.617188 12.65625 -5.859375 C 12.65625 -5.679688 12.632812 -5.222656 12.59375 -4.484375 C 12.550781 -3.753906 12.484375 -3.035156 12.390625 -2.328125 C 12.304688 -1.617188 12.195312 -1.15625 12.0625 -0.9375 C 11.832031 -0.625 11.582031 -0.398438 11.3125 -0.265625 C 11.050781 -0.128906 10.65625 -0.0625 10.125 -0.0625 C 9.5 -0.0625 8.929688 -0.0703125 8.421875 -0.09375 C 7.910156 -0.125 7.347656 -0.140625 6.734375 -0.140625 C 6.066406 -0.140625 5.398438 -0.125 4.734375 -0.09375 C 4.066406 -0.0703125 3.398438 -0.0625 2.734375 -0.0625 C 2.148438 -0.0625 1.582031 -0.160156 1.03125 -0.359375 C 0.476562 -0.566406 0.203125 -1.113281 0.203125 -2 C 0.203125 -2.269531 0.253906 -2.691406 0.359375 -3.265625 C 0.472656 -3.835938 0.597656 -4.484375 0.734375 -5.203125 C 0.867188 -6.085938 0.96875 -6.863281 1.03125 -7.53125 C 1.09375 -8.195312 1.21875 -8.953125 1.40625 -9.796875 C 1.53125 -10.546875 1.660156 -11.234375 1.796875 -11.859375 C 1.929688 -12.484375 2.066406 -13.171875 2.203125 -13.921875 C 2.421875 -15.035156 2.570312 -16.023438 2.65625 -16.890625 C 2.75 -17.753906 2.882812 -18.742188 3.0625 -19.859375 C 3.238281 -20.960938 3.414062 -21.9375 3.59375 -22.78125 C 3.769531 -23.625 3.925781 -24.601562 4.0625 -25.71875 C 4.15625 -26.46875 4.234375 -27.164062 4.296875 -27.8125 C 4.359375 -28.457031 4.457031 -29.179688 4.59375 -29.984375 C 4.769531 -30.867188 4.945312 -31.6875 5.125 -32.4375 C 5.300781 -33.195312 5.476562 -34.019531 5.65625 -34.90625 C 5.925781 -36.332031 6.113281 -37.597656 6.21875 -38.703125 C 6.332031 -39.816406 6.546875 -41.0625 6.859375 -42.4375 C 7.085938 -43.320312 7.320312 -44.140625 7.5625 -44.890625 C 7.800781 -45.648438 8.078125 -46.1875 8.390625 -46.5 C 9.015625 -46.988281 9.992188 -47.234375 11.328125 -47.234375 C 12.484375 -47.234375 13.515625 -47.1875 14.421875 -47.09375 C 15.335938 -47.007812 16.347656 -46.96875 17.453125 -46.96875 C 18.296875 -46.96875 19.140625 -46.976562 19.984375 -47 C 20.828125 -47.019531 21.671875 -47.03125 22.515625 -47.03125 L 22.78125 -47.03125 C 23.675781 -47.03125 24.3125 -46.941406 24.6875 -46.765625 C 25.0625 -46.585938 25.40625 -46.210938 25.71875 -45.640625 C 25.800781 -45.597656 25.863281 -45.472656 25.90625 -45.265625 C 25.957031 -45.066406 26.003906 -44.925781 26.046875 -44.84375 C 26.046875 -44.84375 26.101562 -44.519531 26.21875 -43.875 C 26.332031 -43.226562 26.476562 -42.503906 26.65625 -41.703125 C 26.832031 -40.910156 26.972656 -40.191406 27.078125 -39.546875 C 27.191406 -38.898438 27.25 -38.578125 27.25 -38.578125 C 27.425781 -37.515625 27.554688 -36.546875 27.640625 -35.671875 C 27.734375 -34.804688 27.867188 -33.84375 28.046875 -32.78125 C 28.265625 -31.488281 28.472656 -30.320312 28.671875 -29.28125 C 28.878906 -28.238281 29.113281 -27.070312 29.375 -25.78125 C 29.601562 -24.757812 29.804688 -23.816406 29.984375 -22.953125 C 30.160156 -22.085938 30.316406 -21.144531 30.453125 -20.125 C 30.671875 -18.75 30.8125 -17.515625 30.875 -16.421875 C 30.945312 -15.335938 31.070312 -14.101562 31.25 -12.71875 C 31.46875 -11.394531 31.722656 -10.007812 32.015625 -8.5625 C 32.304688 -7.113281 32.5625 -5.84375 32.78125 -4.75 C 33 -3.664062 33.109375 -2.972656 33.109375 -2.671875 Z M 18.78125 -21.71875 C 18.78125 -22.914062 18.703125 -24.101562 18.546875 -25.28125 C 18.398438 -26.457031 18.25 -27.488281 18.09375 -28.375 C 17.9375 -29.269531 17.832031 -29.875 17.78125 -30.1875 C 17.738281 -30.71875 17.679688 -31.269531 17.609375 -31.84375 C 17.546875 -32.425781 17.472656 -32.757812 17.390625 -32.84375 C 17.253906 -33.332031 17.03125 -33.578125 16.71875 -33.578125 C 16.457031 -33.578125 16.28125 -33.351562 16.1875 -32.90625 C 16.144531 -32.820312 16.078125 -32.566406 15.984375 -32.140625 C 15.898438 -31.722656 15.820312 -31.3125 15.75 -30.90625 C 15.6875 -30.507812 15.632812 -30.242188 15.59375 -30.109375 C 15.5 -29.710938 15.40625 -29.347656 15.3125 -29.015625 C 15.226562 -28.679688 15.144531 -28.316406 15.0625 -27.921875 C 15.0625 -27.785156 15.015625 -27.40625 14.921875 -26.78125 C 14.835938 -26.15625 14.738281 -25.460938 14.625 -24.703125 C 14.507812 -23.953125 14.40625 -23.273438 14.3125 -22.671875 C 14.226562 -22.078125 14.1875 -21.71875 14.1875 -21.59375 C 14.1875 -20.5625 14.394531 -19.925781 14.8125 -19.6875 C 15.238281 -19.445312 15.71875 -19.328125 16.25 -19.328125 C 16.695312 -19.328125 17.226562 -19.425781 17.84375 -19.625 C 18.46875 -19.820312 18.78125 -20.519531 18.78125 -21.71875 Z M 18.78125 -21.71875 "/></g></g><g style="fill:#ffffff;fill-opacity:1;"><g transform="translate(115.491673, 257.615803)"><path style="stroke:none" d="M 1.34375 0 L 1.34375 -9.28125 L 4.890625 -9.28125 C 5.535156 -9.28125 6.09375 -9.15625 6.5625 -8.90625 C 7.039062 -8.664062 7.410156 -8.320312 7.671875 -7.875 C 7.941406 -7.4375 8.078125 -6.910156 8.078125 -6.296875 C 8.078125 -5.546875 7.882812 -4.925781 7.5 -4.4375 C 7.113281 -3.945312 6.578125 -3.613281 5.890625 -3.4375 L 8.234375 0 L 6.828125 0 L 4.5625 -3.328125 L 2.515625 -3.328125 L 2.515625 0 Z M 2.515625 -4.4375 L 4.75 -4.4375 C 5.4375 -4.4375 5.960938 -4.597656 6.328125 -4.921875 C 6.703125 -5.242188 6.890625 -5.703125 6.890625 -6.296875 C 6.890625 -6.890625 6.703125 -7.347656 6.328125 -7.671875 C 5.960938 -7.992188 5.4375 -8.15625 4.75 -8.15625 L 2.515625 -8.15625 Z M 2.515625 -4.4375 "/></g></g><g style="fill:#ffffff;fill-opacity:1;"><g transform="translate(130.585202, 257.615803)"><path style="stroke:none" d="M 1.34375 0 L 1.34375 -9.28125 L 6.984375 -9.28125 L 6.984375 -8.1875 L 2.515625 -8.1875 L 2.515625 -5.265625 L 6.65625 -5.265625 L 6.65625 -4.1875 L 2.515625 -4.1875 L 2.515625 -1.09375 L 7.125 -1.09375 L 7.125 0 Z M 1.34375 0 "/></g></g><g style="fill:#ffffff;fill-opacity:1;"><g transform="translate(144.646575, 257.615803)"><path style="stroke:none" d="M 4.4375 0.171875 C 3.695312 0.171875 3.054688 0.046875 2.515625 -0.203125 C 1.972656 -0.453125 1.550781 -0.804688 1.25 -1.265625 C 0.957031 -1.722656 0.804688 -2.25 0.796875 -2.84375 L 1.96875 -2.84375 C 1.976562 -2.257812 2.210938 -1.796875 2.671875 -1.453125 C 3.128906 -1.109375 3.71875 -0.9375 4.4375 -0.9375 C 5.09375 -0.9375 5.613281 -1.0625 6 -1.3125 C 6.382812 -1.570312 6.578125 -1.929688 6.578125 -2.390625 C 6.578125 -2.828125 6.390625 -3.175781 6.015625 -3.4375 C 5.640625 -3.695312 5.035156 -3.925781 4.203125 -4.125 C 3.054688 -4.394531 2.21875 -4.742188 1.6875 -5.171875 C 1.164062 -5.597656 0.90625 -6.171875 0.90625 -6.890625 C 0.90625 -7.671875 1.203125 -8.289062 1.796875 -8.75 C 2.390625 -9.21875 3.195312 -9.453125 4.21875 -9.453125 C 5.257812 -9.453125 6.082031 -9.191406 6.6875 -8.671875 C 7.289062 -8.148438 7.597656 -7.4375 7.609375 -6.53125 L 6.453125 -6.53125 C 6.441406 -7.082031 6.234375 -7.519531 5.828125 -7.84375 C 5.429688 -8.164062 4.894531 -8.328125 4.21875 -8.328125 C 3.550781 -8.328125 3.03125 -8.195312 2.65625 -7.9375 C 2.28125 -7.675781 2.09375 -7.328125 2.09375 -6.890625 C 2.09375 -6.503906 2.265625 -6.179688 2.609375 -5.921875 C 2.960938 -5.660156 3.585938 -5.421875 4.484375 -5.203125 C 5.671875 -4.910156 6.515625 -4.546875 7.015625 -4.109375 C 7.523438 -3.671875 7.78125 -3.113281 7.78125 -2.4375 C 7.78125 -1.632812 7.476562 -1 6.875 -0.53125 C 6.269531 -0.0625 5.457031 0.171875 4.4375 0.171875 Z M 4.4375 0.171875 "/></g></g><g style="fill:#ffffff;fill-opacity:1;"><g transform="translate(159.290185, 257.615803)"><path style="stroke:none" d="M 3.59375 0 L 3.59375 -8.15625 L 0.453125 -8.15625 L 0.453125 -9.28125 L 7.890625 -9.28125 L 7.890625 -8.15625 L 4.75 -8.15625 L 4.75 0 Z M 3.59375 0 "/></g></g><g style="fill:#ffffff;fill-opacity:1;"><g transform="translate(173.708836, 257.615803)"><path style="stroke:none" d="M 0.21875 0 L 4.046875 -9.28125 L 5.125 -9.28125 L 8.9375 0 L 7.71875 0 L 6.84375 -2.109375 L 2.3125 -2.109375 L 1.46875 0 Z M 2.765625 -3.1875 L 6.40625 -3.1875 L 4.578125 -7.640625 Z M 2.765625 -3.1875 "/></g></g><g style="fill:#ffffff;fill-opacity:1;"><g transform="translate(188.947921, 257.615803)"><path style="stroke:none" d="M 4.828125 0.15625 C 3.703125 0.15625 2.820312 -0.191406 2.1875 -0.890625 C 1.5625 -1.585938 1.25 -2.550781 1.25 -3.78125 L 1.25 -9.28125 L 2.390625 -9.28125 L 2.390625 -3.859375 C 2.390625 -2.910156 2.597656 -2.191406 3.015625 -1.703125 C 3.429688 -1.222656 4.035156 -0.984375 4.828125 -0.984375 C 6.441406 -0.984375 7.25 -1.941406 7.25 -3.859375 L 7.25 -9.28125 L 8.40625 -9.28125 L 8.40625 -3.78125 C 8.40625 -2.550781 8.085938 -1.585938 7.453125 -0.890625 C 6.816406 -0.191406 5.941406 0.15625 4.828125 0.15625 Z M 4.828125 0.15625 "/></g></g><g style="fill:#ffffff;fill-opacity:1;"><g transform="translate(204.676615, 257.615803)"><path style="stroke:none" d="M 1.34375 0 L 1.34375 -9.28125 L 4.890625 -9.28125 C 5.535156 -9.28125 6.09375 -9.15625 6.5625 -8.90625 C 7.039062 -8.664062 7.410156 -8.320312 7.671875 -7.875 C 7.941406 -7.4375 8.078125 -6.910156 8.078125 -6.296875 C 8.078125 -5.546875 7.882812 -4.925781 7.5 -4.4375 C 7.113281 -3.945312 6.578125 -3.613281 5.890625 -3.4375 L 8.234375 0 L 6.828125 0 L 4.5625 -3.328125 L 2.515625 -3.328125 L 2.515625 0 Z M 2.515625 -4.4375 L 4.75 -4.4375 C 5.4375 -4.4375 5.960938 -4.597656 6.328125 -4.921875 C 6.703125 -5.242188 6.890625 -5.703125 6.890625 -6.296875 C 6.890625 -6.890625 6.703125 -7.347656 6.328125 -7.671875 C 5.960938 -7.992188 5.4375 -8.15625 4.75 -8.15625 L 2.515625 -8.15625 Z M 2.515625 -4.4375 "/></g></g><g style="fill:#ffffff;fill-opacity:1;"><g transform="translate(219.770145, 257.615803)"><path style="stroke:none" d="M 0.21875 0 L 4.046875 -9.28125 L 5.125 -9.28125 L 8.9375 0 L 7.71875 0 L 6.84375 -2.109375 L 2.3125 -2.109375 L 1.46875 0 Z M 2.765625 -3.1875 L 6.40625 -3.1875 L 4.578125 -7.640625 Z M 2.765625 -3.1875 "/></g></g><g style="fill:#ffffff;fill-opacity:1;"><g transform="translate(235.00923, 257.615803)"><path style="stroke:none" d="M 1.34375 0 L 1.34375 -9.28125 L 2.453125 -9.28125 L 7.578125 -2.015625 L 7.578125 -9.28125 L 8.71875 -9.28125 L 8.71875 0 L 7.625 0 L 2.5 -7.265625 L 2.5 0 Z M 1.34375 0 "/></g></g><g style="fill:#ffffff;fill-opacity:1;"><g transform="translate(251.148142, 257.615803)"><path style="stroke:none" d="M 3.59375 0 L 3.59375 -8.15625 L 0.453125 -8.15625 L 0.453125 -9.28125 L 7.890625 -9.28125 L 7.890625 -8.15625 L 4.75 -8.15625 L 4.75 0 Z M 3.59375 0 "/></g></g></g></svg>