<svg xmlns="http://www.w3.org/2000/svg" xmlns:xlink="http://www.w3.org/1999/xlink" width="500" zoomAndPan="magnify" viewBox="0 0 375 374.999991" height="500" preserveAspectRatio="xMidYMid meet" version="1.2"><defs><clipPath id="a676e9d3ae"><path d="M 56 56.625 L 319 56.625 L 319 318.375 L 56 318.375 Z M 56 56.625 "/></clipPath><clipPath id="f5ac9ff4f5"><path d="M 73.492188 148 L 301.445312 148 L 301.445312 249 L 73.492188 249 Z M 73.492188 148 "/></clipPath><clipPath id="cf61949bb3"><path d="M 187.46875 73.941406 C 250.15625 73.941406 301.027344 124.753906 301.027344 187.5 C 301.027344 250.1875 250.21875 301.058594 187.46875 301.058594 C 124.78125 301.058594 73.914062 250.246094 73.914062 187.5 C 73.914062 124.8125 124.78125 73.941406 187.46875 73.941406 Z M 187.46875 73.941406 "/></clipPath><clipPath id="bd81bb2114"><path d="M 37.5 144 L 337.5 144 L 337.5 245 L 37.5 245 Z M 37.5 144 "/></clipPath></defs><g id="e4dd6a98be"><g clip-rule="nonzero" clip-path="url(#a676e9d3ae)"><path style=" stroke:none;fill-rule:evenodd;fill:#231f20;fill-opacity:1;" d="M 187.46875 56.667969 C 259.695312 56.667969 318.304688 115.214844 318.304688 187.5 C 318.304688 259.726562 259.753906 318.332031 187.46875 318.332031 C 115.246094 318.332031 56.636719 259.785156 56.636719 187.5 C 56.636719 115.214844 115.246094 56.667969 187.46875 56.667969 Z M 187.46875 56.667969 "/></g><path style=" stroke:none;fill-rule:evenodd;fill:#f6eec7;fill-opacity:1;" d="M 187.46875 66.746094 C 254.175781 66.746094 308.226562 120.792969 308.226562 187.5 C 308.226562 254.207031 254.175781 308.253906 187.46875 308.253906 C 120.761719 308.253906 66.714844 254.207031 66.714844 187.5 C 66.714844 120.792969 120.761719 66.746094 187.46875 66.746094 Z M 187.46875 66.746094 "/><path style=" stroke:none;fill-rule:evenodd;fill:#231f20;fill-opacity:1;" d="M 187.46875 70.644531 C 252.015625 70.644531 304.265625 122.953125 304.265625 187.441406 C 304.265625 251.988281 251.957031 304.238281 187.46875 304.238281 C 122.984375 304.238281 70.671875 251.988281 70.671875 187.5 C 70.671875 122.953125 122.921875 70.644531 187.46875 70.644531 Z M 187.46875 70.644531 "/><path style=" stroke:none;fill-rule:evenodd;fill:#fbb040;fill-opacity:1;" d="M 187.46875 73.941406 C 250.15625 73.941406 301.027344 124.753906 301.027344 187.5 C 301.027344 250.1875 250.21875 301.058594 187.46875 301.058594 C 124.78125 301.058594 73.914062 250.246094 73.914062 187.5 C 73.914062 124.8125 124.78125 73.941406 187.46875 73.941406 Z M 187.46875 73.941406 "/><g clip-rule="nonzero" clip-path="url(#f5ac9ff4f5)"><g clip-rule="nonzero" clip-path="url(#cf61949bb3)"><path style=" stroke:none;fill-rule:evenodd;fill:#fb9f1f;fill-opacity:1;" d="M 45.839844 148.449219 L 329.160156 148.449219 C 333.722656 148.449219 337.5 152.167969 337.5 156.785156 L 337.5 239.929688 C 337.5 244.488281 333.78125 248.269531 329.160156 248.269531 L 282.671875 248.269531 C 281.710938 248.269531 280.871094 248.148438 279.910156 247.789062 C 252.078125 238.011719 216.804688 234.949219 187.46875 234.949219 C 158.136719 234.949219 122.863281 238.011719 95.027344 247.789062 C 94.128906 248.085938 93.230469 248.269531 92.269531 248.269531 L 45.839844 248.269531 C 41.277344 248.269531 37.5 244.546875 37.5 239.929688 L 37.5 156.726562 C 37.5 152.167969 41.21875 148.449219 45.839844 148.449219 Z M 45.839844 148.449219 "/></g></g><path style=" stroke:none;fill-rule:evenodd;fill:#231f20;fill-opacity:1;" d="M 329.101562 243.949219 L 294.847656 239.390625 L 293.890625 261.285156 Z M 329.101562 243.949219 "/><path style=" stroke:none;fill-rule:evenodd;fill:#231f20;fill-opacity:1;" d="M 45.839844 243.949219 L 80.089844 239.390625 L 81.050781 261.285156 Z M 45.839844 243.949219 "/><path style=" stroke:none;fill-rule:evenodd;fill:#231f20;fill-opacity:1;" d="M 259.035156 262.605469 C 259.816406 262.605469 260.476562 263.265625 260.476562 264.042969 C 260.476562 264.824219 259.816406 265.484375 259.035156 265.484375 C 258.253906 265.484375 257.597656 264.824219 257.597656 264.042969 C 257.597656 263.203125 258.195312 262.605469 259.035156 262.605469 Z M 259.035156 262.605469 "/><path style=" stroke:none;fill-rule:evenodd;fill:#231f20;fill-opacity:1;" d="M 115.90625 262.605469 C 116.683594 262.605469 117.34375 263.265625 117.34375 264.042969 C 117.34375 264.824219 116.683594 265.484375 115.90625 265.484375 C 115.125 265.484375 114.464844 264.824219 114.464844 264.042969 C 114.523438 263.203125 115.125 262.605469 115.90625 262.605469 Z M 115.90625 262.605469 "/><g clip-rule="nonzero" clip-path="url(#bd81bb2114)"><path style=" stroke:none;fill-rule:evenodd;fill:#231f20;fill-opacity:1;" d="M 45.839844 144.1875 L 329.160156 144.1875 C 333.722656 144.1875 337.5 147.90625 337.5 152.527344 L 337.5 235.671875 C 337.5 240.230469 333.78125 244.007812 329.160156 244.007812 L 282.671875 244.007812 C 281.710938 244.007812 280.871094 243.890625 279.910156 243.527344 C 252.078125 233.691406 216.804688 230.632812 187.46875 230.632812 C 158.136719 230.632812 122.863281 233.691406 95.027344 243.46875 C 94.128906 243.769531 93.230469 243.949219 92.269531 243.949219 L 45.839844 243.949219 C 41.21875 243.949219 37.5 240.230469 37.5 235.609375 L 37.5 152.46875 C 37.5 147.90625 41.21875 144.1875 45.839844 144.1875 Z M 45.839844 144.1875 "/></g><path style=" stroke:none;fill-rule:evenodd;fill:#f6eec7;fill-opacity:1;" d="M 45.839844 152.46875 L 329.160156 152.46875 L 329.160156 235.609375 L 282.671875 235.609375 C 259.515625 227.453125 225.441406 222.351562 187.46875 222.351562 C 149.496094 222.351562 115.484375 227.511719 92.269531 235.609375 L 45.839844 235.609375 Z M 45.839844 152.46875 "/><path style=" stroke:none;fill-rule:nonzero;fill:#231f20;fill-opacity:1;" d="M 51.898438 145.269531 C 51.777344 145.269531 51.65625 145.269531 51.539062 145.207031 C 50.9375 145.027344 50.636719 144.429688 50.816406 143.828125 C 54.296875 132.910156 59.09375 122.414062 65.09375 112.574219 C 65.394531 112.035156 66.113281 111.914062 66.59375 112.214844 C 67.132812 112.515625 67.253906 113.234375 66.953125 113.714844 C 61.074219 123.371094 56.335938 133.691406 52.917969 144.488281 C 52.796875 144.96875 52.378906 145.269531 51.898438 145.269531 Z M 58.316406 145.269531 C 58.195312 145.269531 58.074219 145.269531 57.957031 145.207031 C 57.355469 145.027344 57.054688 144.367188 57.234375 143.828125 C 59.816406 136.210938 63.054688 128.710938 66.953125 121.632812 C 67.253906 121.09375 67.914062 120.914062 68.453125 121.214844 C 68.992188 121.511719 69.171875 122.171875 68.875 122.714844 C 65.035156 129.671875 61.855469 137.050781 59.335938 144.546875 C 59.15625 144.96875 58.734375 145.269531 58.316406 145.269531 Z M 58.316406 145.269531 "/><path style=" stroke:none;fill-rule:nonzero;fill:#231f20;fill-opacity:1;" d="M 316.625 145.269531 C 316.144531 145.269531 315.722656 144.96875 315.605469 144.488281 C 313.085938 136.988281 309.90625 129.613281 306.066406 122.652344 C 305.765625 122.113281 305.945312 121.453125 306.484375 121.152344 C 307.027344 120.851562 307.6875 121.035156 307.984375 121.574219 C 311.886719 128.652344 315.125 136.148438 317.703125 143.769531 C 317.882812 144.367188 317.582031 144.96875 316.984375 145.148438 C 316.863281 145.269531 316.742188 145.269531 316.625 145.269531 Z M 323.042969 145.269531 C 322.5625 145.269531 322.144531 144.96875 321.964844 144.488281 C 318.542969 133.75 313.804688 123.371094 307.925781 113.714844 C 307.625 113.175781 307.746094 112.515625 308.285156 112.214844 C 308.824219 111.914062 309.484375 112.035156 309.785156 112.574219 C 315.785156 122.351562 320.582031 132.910156 324.0625 143.828125 C 324.242188 144.429688 323.941406 145.027344 323.34375 145.207031 C 323.28125 145.269531 323.164062 145.269531 323.042969 145.269531 Z M 323.042969 145.269531 "/><path style=" stroke:none;fill-rule:evenodd;fill:#231f20;fill-opacity:1;" d="M 173.433594 272.863281 C 173.433594 272.863281 170.613281 276.222656 169.171875 277.242188 C 169.171875 277.242188 167.734375 278.320312 166.054688 277.121094 C 166.054688 277.121094 167.734375 277.902344 168.875 277.003906 C 170.011719 276.101562 173.433594 272.863281 173.433594 272.863281 Z M 172.53125 274.300781 C 171.8125 275.023438 170.132812 276.941406 169.414062 277.421875 C 168.152344 278.320312 166.535156 278.140625 165.753906 277.363281 C 165.273438 276.882812 165.273438 276.101562 165.453125 275.503906 C 165.875 274.484375 166.894531 274.183594 167.792969 273.761719 C 170.492188 272.503906 181.710938 260.804688 184.53125 258.046875 C 186.269531 256.425781 187.949219 254.746094 189.691406 253.125 C 191.730469 251.207031 191.488281 251.445312 191.070312 248.628906 C 191.007812 248.027344 191.070312 248.328125 191.007812 247.96875 C 190.949219 246.886719 191.488281 246.347656 192.449219 245.449219 L 200.246094 237.949219 C 201.386719 236.871094 202.945312 235.25 204.148438 234.230469 C 204.804688 233.628906 205.167969 234.109375 204.988281 234.53125 C 204.804688 234.949219 195.867188 243.648438 194.667969 244.910156 C 193.648438 245.988281 194.609375 246.949219 195.628906 246.226562 C 196.167969 245.808594 202.585938 239.269531 203.425781 238.488281 C 204.207031 237.710938 205.226562 236.570312 206.007812 235.910156 C 206.484375 235.492188 206.964844 235.851562 206.667969 236.390625 C 206.304688 237.050781 195.507812 247.246094 195.269531 248.085938 C 195.148438 248.507812 195.328125 249.046875 195.929688 249.046875 C 196.46875 249.046875 196.828125 248.628906 197.246094 248.207031 L 205.046875 240.410156 C 205.886719 239.570312 206.726562 238.667969 207.625 237.828125 C 208.40625 237.109375 208.644531 237.710938 208.527344 238.011719 C 208.40625 238.429688 202.707031 243.949219 202.105469 244.546875 C 201.265625 245.386719 200.425781 246.226562 199.527344 247.128906 C 198.867188 247.789062 197.367188 248.925781 197.789062 249.707031 C 198.027344 250.128906 198.566406 250.128906 199.046875 249.828125 C 199.527344 249.527344 207.566406 241.371094 208.105469 240.769531 C 208.527344 240.347656 208.945312 239.871094 209.367188 239.507812 C 209.90625 239.03125 210.445312 239.390625 210.144531 239.929688 C 209.84375 240.410156 201.566406 248.925781 200.1875 250.367188 C 199.527344 251.027344 198.386719 252.40625 197.667969 252.886719 C 195.929688 254.085938 194.007812 252.46875 192.507812 253.246094 C 191.910156 253.546875 188.308594 257.507812 187.53125 258.285156 C 182.609375 263.503906 177.570312 268.964844 172.53125 274.300781 Z M 172.53125 274.300781 "/><path style=" stroke:none;fill-rule:evenodd;fill:#231f20;fill-opacity:1;" d="M 200.007812 273.28125 C 200.007812 273.28125 202.707031 276.460938 204.085938 277.480469 C 204.085938 277.480469 205.464844 278.5 207.085938 277.363281 C 207.085938 277.363281 205.527344 278.082031 204.386719 277.242188 C 203.308594 276.34375 200.007812 273.28125 200.007812 273.28125 Z M 176.792969 240.648438 C 174.933594 238.851562 170.074219 235.851562 167.554688 236.148438 C 166.414062 236.269531 165.394531 236.390625 164.855469 237.828125 C 164.734375 238.25 164.613281 238.96875 164.613281 239.328125 C 164.613281 240.710938 165.515625 242.6875 166.175781 243.949219 C 167.734375 246.949219 170.554688 250.605469 174.09375 251.386719 C 174.511719 251.445312 176.253906 251.746094 176.792969 251.6875 C 177.03125 251.6875 176.972656 251.6875 177.152344 251.6875 C 177.75 251.746094 177.933594 251.6875 178.652344 251.925781 C 179.371094 252.167969 179.671875 252.40625 180.210938 253.007812 C 187.050781 260.207031 194.007812 267.34375 200.847656 274.542969 C 201.507812 275.261719 203.125 277.121094 203.847656 277.542969 C 205.046875 278.441406 206.605469 278.261719 207.324219 277.480469 C 207.804688 277.003906 207.746094 276.28125 207.625 275.683594 C 207.207031 274.722656 206.246094 274.421875 205.347656 274.003906 C 202.226562 272.503906 186.332031 256.125 182.851562 252.765625 C 181.472656 251.445312 180.453125 250.847656 180.269531 248.988281 L 180.152344 247.429688 C 180.152344 244.96875 179.132812 242.867188 176.792969 240.648438 Z M 176.792969 240.648438 "/><path style=" stroke:none;fill-rule:evenodd;fill:#231f20;fill-opacity:1;" d="M 211.046875 256.964844 C 211.945312 256.964844 212.664062 257.6875 212.664062 258.585938 C 212.664062 259.484375 211.945312 260.207031 211.046875 260.207031 C 210.144531 260.207031 209.425781 259.484375 209.425781 258.585938 C 209.425781 257.6875 210.144531 256.964844 211.046875 256.964844 Z M 211.046875 256.964844 "/><path style=" stroke:none;fill-rule:evenodd;fill:#231f20;fill-opacity:1;" d="M 217.164062 256.964844 C 218.0625 256.964844 218.785156 257.6875 218.785156 258.585938 C 218.785156 259.484375 218.0625 260.207031 217.164062 260.207031 C 216.265625 260.207031 215.542969 259.484375 215.542969 258.585938 C 215.542969 257.6875 216.265625 256.964844 217.164062 256.964844 Z M 217.164062 256.964844 "/><path style=" stroke:none;fill-rule:evenodd;fill:#231f20;fill-opacity:1;" d="M 223.28125 256.964844 C 224.183594 256.964844 224.902344 257.6875 224.902344 258.585938 C 224.902344 259.484375 224.183594 260.207031 223.28125 260.207031 C 222.382812 260.207031 221.664062 259.484375 221.664062 258.585938 C 221.664062 257.6875 222.382812 256.964844 223.28125 256.964844 Z M 223.28125 256.964844 "/><path style=" stroke:none;fill-rule:evenodd;fill:#231f20;fill-opacity:1;" d="M 151.65625 256.964844 C 152.558594 256.964844 153.277344 257.6875 153.277344 258.585938 C 153.277344 259.484375 152.558594 260.207031 151.65625 260.207031 C 150.757812 260.207031 150.039062 259.484375 150.039062 258.585938 C 150.039062 257.6875 150.757812 256.964844 151.65625 256.964844 Z M 151.65625 256.964844 "/><path style=" stroke:none;fill-rule:evenodd;fill:#231f20;fill-opacity:1;" d="M 157.777344 256.964844 C 158.675781 256.964844 159.394531 257.6875 159.394531 258.585938 C 159.394531 259.484375 158.675781 260.207031 157.777344 260.207031 C 156.875 260.207031 156.15625 259.484375 156.15625 258.585938 C 156.15625 257.6875 156.875 256.964844 157.777344 256.964844 Z M 157.777344 256.964844 "/><path style=" stroke:none;fill-rule:evenodd;fill:#231f20;fill-opacity:1;" d="M 163.894531 256.964844 C 164.792969 256.964844 165.515625 257.6875 165.515625 258.585938 C 165.515625 259.484375 164.792969 260.207031 163.894531 260.207031 C 162.996094 260.207031 162.273438 259.484375 162.273438 258.585938 C 162.273438 257.6875 162.996094 256.964844 163.894531 256.964844 Z M 163.894531 256.964844 "/><path style=" stroke:none;fill-rule:evenodd;fill:#231f20;fill-opacity:1;" d="M 183.570312 83 C 183.570312 83 182.550781 81.5625 182.3125 80.78125 C 182.070312 80 181.589844 78.683594 186.390625 78.683594 C 186.390625 78.683594 182.730469 78.980469 182.910156 80.179688 C 183.089844 81.320312 183.570312 83 183.570312 83 Z M 216.324219 95.839844 C 216.324219 95.839844 216.023438 97.699219 214.644531 98.597656 C 214.644531 98.597656 221.003906 97.097656 222.503906 103.097656 C 224.003906 109.09375 210.566406 111.074219 210.566406 111.074219 C 210.566406 111.074219 210.445312 106.035156 211.765625 105.257812 C 213.085938 104.535156 219.742188 103.097656 218.484375 102.078125 C 217.523438 101.296875 215.722656 101.296875 214.703125 101.355469 L 214.703125 103.277344 C 214.105469 103.457031 213.503906 103.636719 212.90625 103.875 C 212.425781 104.058594 211.824219 104.238281 211.40625 104.476562 C 210.324219 105.078125 210.027344 106.816406 209.90625 107.957031 C 209.785156 108.976562 209.726562 110.054688 209.726562 111.136719 C 209.726562 111.433594 209.84375 111.613281 210.027344 111.796875 C 210.207031 111.976562 210.503906 112.035156 210.746094 111.976562 C 211.523438 111.855469 212.304688 111.675781 213.023438 111.554688 C 213.625 111.433594 214.164062 111.253906 214.765625 111.136719 L 214.765625 114.074219 C 210.746094 114.675781 206.367188 115.933594 204.207031 118.273438 C 203.667969 118.574219 203.125 119.054688 202.945312 119.59375 C 202.886719 119.832031 202.828125 120.074219 202.828125 120.3125 C 202.828125 120.671875 202.945312 120.914062 203.125 121.152344 C 203.066406 121.332031 203.066406 121.511719 203.125 121.691406 C 203.125 121.753906 203.1875 121.875 203.1875 121.933594 C 203.125 121.933594 203.066406 121.933594 203.066406 121.933594 C 200.96875 122.351562 199.648438 123.792969 199.167969 125.832031 C 198.449219 128.652344 200.96875 130.390625 203.246094 131.351562 C 203.546875 131.472656 203.847656 131.589844 204.207031 131.710938 L 204.148438 140.347656 C 202.226562 140.828125 200.007812 141.128906 197.367188 141.25 L 188.96875 141.371094 L 188.96875 141.429688 L 186.210938 141.429688 L 186.210938 141.371094 L 177.8125 141.25 C 175.171875 141.128906 172.894531 140.828125 171.035156 140.347656 L 170.972656 131.710938 C 171.273438 131.589844 171.632812 131.472656 171.933594 131.351562 C 173.554688 130.691406 175.351562 129.613281 175.953125 127.871094 C 176.191406 127.210938 176.191406 126.492188 176.011719 125.832031 C 175.53125 123.792969 174.152344 122.351562 172.113281 121.933594 C 172.054688 121.933594 171.992188 121.933594 171.992188 121.933594 C 171.992188 121.875 172.054688 121.753906 172.054688 121.691406 C 172.113281 121.511719 172.054688 121.332031 172.054688 121.152344 C 172.234375 120.914062 172.351562 120.613281 172.351562 120.3125 C 172.351562 120.074219 172.351562 119.832031 172.234375 119.59375 C 172.054688 119.054688 171.511719 118.574219 170.972656 118.273438 C 168.8125 115.933594 164.433594 114.675781 160.414062 114.074219 L 160.414062 111.136719 C 161.015625 111.316406 161.554688 111.433594 162.15625 111.554688 C 162.933594 111.734375 163.714844 111.914062 164.433594 111.976562 C 164.734375 112.035156 164.972656 111.914062 165.15625 111.796875 C 165.335938 111.613281 165.453125 111.375 165.453125 111.136719 C 165.453125 110.117188 165.394531 108.976562 165.273438 107.957031 C 165.15625 106.816406 164.855469 105.078125 163.773438 104.476562 C 163.355469 104.238281 162.753906 104.058594 162.273438 103.875 C 161.675781 103.695312 161.074219 103.515625 160.414062 103.277344 L 160.414062 101.355469 C 159.394531 101.296875 157.535156 101.296875 156.636719 102.078125 C 155.375 103.097656 162.035156 104.476562 163.355469 105.257812 C 164.675781 105.976562 164.554688 111.074219 164.554688 111.074219 C 164.554688 111.074219 151.175781 109.09375 152.617188 103.097656 C 154.117188 97.097656 160.476562 98.597656 160.476562 98.597656 C 159.15625 97.636719 158.796875 95.839844 158.796875 95.839844 C 172.773438 100.15625 202.167969 100.15625 216.324219 95.839844 Z M 164.132812 99.496094 C 164.132812 99.496094 176.972656 103.398438 204.867188 100.277344 C 204.867188 100.277344 189.089844 102.796875 179.550781 102.136719 C 170.011719 101.539062 164.132812 99.496094 164.132812 99.496094 Z M 200.90625 87.078125 C 200.90625 87.078125 208.40625 87.800781 214.765625 92.660156 C 214.765625 92.660156 210.625 95.539062 195.148438 95.839844 C 195.148438 95.839844 207.6875 95.296875 213.085938 92.480469 C 213.085938 92.480469 213.144531 92.300781 212.84375 92.058594 C 212.605469 91.820312 207.566406 88.699219 200.90625 87.078125 Z M 187.050781 77.902344 L 191.550781 77.902344 C 191.550781 77.902344 193.949219 77.84375 193.828125 80.0625 C 193.707031 82.101562 191.667969 82.761719 191.308594 85.519531 C 201.867188 86 211.765625 88.28125 215.363281 92.480469 C 215.363281 92.480469 216.503906 93.078125 216.683594 93.617188 C 218.484375 98.476562 156.394531 98.476562 158.195312 93.617188 C 158.375 93.078125 159.515625 92.480469 159.515625 92.480469 C 163.113281 88.28125 172.953125 86 183.570312 85.519531 C 183.269531 82.820312 181.171875 82.101562 181.050781 80.0625 C 180.929688 77.84375 183.332031 77.902344 183.332031 77.902344 Z M 187.050781 77.902344 "/><path style=" stroke:none;fill-rule:evenodd;fill:#231f20;fill-opacity:1;" d="M 220.644531 113.113281 C 220.644531 113.113281 219.984375 112.15625 219.804688 111.675781 C 219.625 111.195312 219.324219 110.296875 222.441406 110.296875 C 222.441406 110.296875 220.042969 110.535156 220.164062 111.253906 C 220.34375 112.035156 220.644531 113.113281 220.644531 113.113281 Z M 242 121.453125 C 242 121.453125 241.757812 122.652344 240.917969 123.253906 C 240.917969 123.253906 245.058594 122.234375 246.019531 126.191406 C 246.976562 130.089844 238.21875 131.410156 238.21875 131.410156 C 238.21875 131.410156 238.160156 128.113281 239 127.632812 C 239.839844 127.152344 244.21875 126.191406 243.378906 125.59375 C 242.777344 125.113281 241.578125 125.113281 240.917969 125.113281 L 240.917969 126.371094 C 240.5 126.492188 240.140625 126.613281 239.71875 126.730469 C 239.417969 126.851562 239 126.972656 238.699219 127.152344 C 237.980469 127.570312 237.800781 128.710938 237.679688 129.429688 C 237.621094 130.089844 237.558594 130.8125 237.558594 131.472656 C 237.558594 131.652344 237.621094 131.832031 237.800781 131.890625 C 237.917969 132.011719 238.101562 132.070312 238.28125 132.011719 C 238.757812 131.949219 239.300781 131.832031 239.78125 131.710938 C 240.140625 131.652344 240.558594 131.53125 240.917969 131.410156 L 240.980469 143.050781 C 240.980469 143.050781 241.820312 150.667969 229.523438 151.148438 L 224.0625 151.265625 L 224.0625 151.328125 L 222.261719 151.328125 L 222.261719 151.265625 L 216.804688 151.148438 C 204.566406 150.605469 205.347656 143.050781 205.347656 143.050781 L 205.40625 131.410156 C 205.765625 131.53125 206.125 131.589844 206.546875 131.710938 C 207.027344 131.832031 207.566406 131.949219 208.046875 132.011719 C 208.226562 132.011719 208.40625 132.011719 208.527344 131.890625 C 208.644531 131.769531 208.707031 131.652344 208.765625 131.472656 C 208.765625 130.8125 208.765625 130.089844 208.644531 129.429688 C 208.527344 128.710938 208.347656 127.570312 207.625 127.152344 C 207.324219 126.972656 206.964844 126.851562 206.605469 126.730469 C 206.1875 126.613281 205.828125 126.492188 205.40625 126.371094 L 205.40625 125.113281 C 204.746094 125.113281 203.546875 125.113281 202.945312 125.59375 C 202.105469 126.253906 206.425781 127.152344 207.324219 127.632812 C 208.164062 128.113281 208.105469 131.410156 208.105469 131.410156 C 208.105469 131.410156 199.347656 130.152344 200.308594 126.191406 C 201.265625 122.292969 205.40625 123.253906 205.40625 123.253906 C 204.507812 122.652344 204.328125 121.453125 204.328125 121.453125 C 213.625 124.273438 232.820312 124.273438 242 121.453125 Z M 207.984375 123.914062 C 207.984375 123.914062 216.324219 126.492188 234.5625 124.453125 C 234.5625 124.453125 224.242188 126.074219 218.0625 125.652344 C 211.824219 125.171875 207.984375 123.914062 207.984375 123.914062 Z M 231.980469 115.753906 C 231.980469 115.753906 236.898438 116.234375 241.039062 119.355469 C 241.039062 119.355469 238.339844 121.214844 228.261719 121.453125 C 228.261719 121.453125 236.421875 121.09375 239.960938 119.292969 C 239.960938 119.292969 239.960938 119.171875 239.839844 118.992188 C 239.597656 118.875 236.300781 116.835938 231.980469 115.753906 Z M 149.199219 113.113281 C 149.199219 113.113281 148.539062 112.15625 148.359375 111.675781 C 148.179688 111.195312 147.878906 110.296875 150.996094 110.296875 C 150.996094 110.296875 148.597656 110.535156 148.71875 111.253906 C 148.835938 112.035156 149.199219 113.113281 149.199219 113.113281 Z M 170.554688 121.453125 C 170.554688 121.453125 170.3125 122.652344 169.472656 123.253906 C 169.472656 123.253906 173.613281 122.234375 174.574219 126.191406 C 175.53125 130.089844 166.773438 131.410156 166.773438 131.410156 C 166.773438 131.410156 166.714844 128.113281 167.554688 127.632812 C 168.394531 127.152344 172.773438 126.191406 171.933594 125.59375 C 171.332031 125.113281 170.132812 125.113281 169.472656 125.113281 L 169.472656 126.371094 C 169.054688 126.492188 168.695312 126.613281 168.273438 126.730469 C 167.972656 126.851562 167.554688 126.972656 167.253906 127.152344 C 166.535156 127.570312 166.355469 128.710938 166.234375 129.429688 C 166.175781 130.089844 166.113281 130.8125 166.113281 131.472656 C 166.113281 131.652344 166.175781 131.832031 166.355469 131.890625 C 166.472656 132.011719 166.652344 132.070312 166.835938 132.011719 C 167.3125 131.949219 167.855469 131.832031 168.332031 131.710938 C 168.695312 131.652344 169.113281 131.53125 169.472656 131.410156 L 169.535156 143.050781 C 169.535156 143.050781 170.375 150.667969 158.074219 151.148438 L 152.617188 151.265625 L 152.617188 151.328125 L 150.816406 151.328125 L 150.816406 151.265625 L 145.359375 151.148438 C 133.121094 150.605469 133.902344 143.050781 133.902344 143.050781 L 133.960938 131.410156 C 134.320312 131.53125 134.679688 131.589844 135.101562 131.710938 C 135.582031 131.832031 136.121094 131.949219 136.601562 132.011719 C 136.78125 132.011719 136.960938 132.011719 137.078125 131.890625 C 137.199219 131.769531 137.261719 131.652344 137.320312 131.472656 C 137.320312 130.8125 137.320312 130.089844 137.199219 129.429688 C 137.078125 128.710938 136.898438 127.570312 136.179688 127.152344 C 135.878906 126.972656 135.519531 126.851562 135.160156 126.730469 C 134.742188 126.613281 134.378906 126.492188 133.960938 126.371094 L 133.960938 125.113281 C 133.300781 125.113281 132.101562 125.113281 131.5 125.59375 C 130.660156 126.253906 134.980469 127.152344 135.878906 127.632812 C 136.71875 128.113281 136.660156 131.410156 136.660156 131.410156 C 136.660156 131.410156 127.902344 130.152344 128.863281 126.191406 C 129.820312 122.292969 133.960938 123.253906 133.960938 123.253906 C 133.0625 122.652344 132.882812 121.453125 132.882812 121.453125 C 142.117188 124.273438 161.316406 124.273438 170.554688 121.453125 Z M 136.539062 123.914062 C 136.539062 123.914062 144.878906 126.492188 163.113281 124.453125 C 163.113281 124.453125 152.796875 126.074219 146.617188 125.652344 C 140.320312 125.171875 136.539062 123.914062 136.539062 123.914062 Z M 160.476562 115.753906 C 160.476562 115.753906 165.394531 116.234375 169.535156 119.355469 C 169.535156 119.355469 166.835938 121.214844 156.757812 121.453125 C 156.757812 121.453125 164.914062 121.09375 168.453125 119.292969 C 168.453125 119.292969 168.453125 119.171875 168.332031 118.992188 C 168.152344 118.875 164.855469 116.835938 160.476562 115.753906 Z M 151.476562 109.816406 L 154.355469 109.816406 C 154.355469 109.816406 155.917969 109.753906 155.855469 111.195312 C 155.796875 112.515625 154.417969 112.996094 154.238281 114.734375 C 161.136719 115.035156 167.554688 116.535156 169.894531 119.234375 C 169.894531 119.234375 170.613281 119.652344 170.792969 119.953125 C 171.992188 123.132812 131.441406 123.132812 132.640625 119.953125 C 132.761719 119.59375 133.539062 119.234375 133.539062 119.234375 C 135.878906 116.535156 142.300781 114.972656 149.199219 114.734375 C 148.957031 112.933594 147.636719 112.515625 147.578125 111.195312 C 147.519531 109.753906 149.078125 109.816406 149.078125 109.816406 Z M 222.921875 109.816406 L 225.800781 109.816406 C 225.800781 109.816406 227.363281 109.753906 227.300781 111.195312 C 227.242188 112.515625 225.863281 112.996094 225.683594 114.734375 C 232.582031 115.035156 239 116.535156 241.339844 119.234375 C 241.339844 119.234375 242.058594 119.652344 242.238281 119.953125 C 243.4375 123.132812 202.886719 123.132812 204.085938 119.953125 C 204.207031 119.59375 204.988281 119.234375 204.988281 119.234375 C 207.324219 116.535156 213.746094 114.972656 220.644531 114.734375 C 220.402344 112.933594 219.082031 112.515625 219.023438 111.195312 C 218.964844 109.753906 220.523438 109.816406 220.523438 109.816406 Z M 222.921875 109.816406 "/><g style="fill:#231f20;fill-opacity:1;"><g transform="translate(74.083825, 204.158374)"><path style="stroke:none" d="M 1.265625 0 L 1.265625 -39.15625 L 7.6875 -39.15625 L 7.6875 0 Z M 13.5625 0 L 7.6875 -19.578125 L 13.5625 -39.15625 L 20.21875 -39.15625 L 14.09375 -19.578125 L 20.21875 0 Z M 13.5625 0 "/></g></g><g style="fill:#231f20;fill-opacity:1;"><g transform="translate(95.565152, 204.158374)"><path style="stroke:none" d="M 1.265625 0 L 1.265625 -39.15625 L 7.6875 -39.15625 L 7.6875 0 Z M 1.265625 0 "/></g></g><g style="fill:#231f20;fill-opacity:1;"><g transform="translate(104.519784, 204.158374)"><path style="stroke:none" d="M 6.515625 0 L 6.515625 -32.734375 L 1.265625 -32.734375 L 1.265625 -39.15625 L 18.15625 -39.15625 L 18.15625 -32.734375 L 12.921875 -32.734375 L 12.921875 0 Z M 6.515625 0 "/></g></g><g style="fill:#231f20;fill-opacity:1;"><g transform="translate(123.945939, 204.158374)"><path style="stroke:none" d="M 10.171875 0.484375 C 7.273438 0.484375 5.066406 -0.367188 3.546875 -2.078125 C 2.023438 -3.796875 1.265625 -6.628906 1.265625 -10.578125 L 1.265625 -28.578125 C 1.265625 -32.523438 2.023438 -35.351562 3.546875 -37.0625 C 5.066406 -38.78125 7.273438 -39.640625 10.171875 -39.640625 C 13.109375 -39.640625 15.335938 -38.78125 16.859375 -37.0625 C 18.378906 -35.351562 19.140625 -32.523438 19.140625 -28.578125 L 19.140625 -23.25 L 12.71875 -23.25 L 12.71875 -28.28125 C 12.71875 -30.207031 12.554688 -31.515625 12.234375 -32.203125 C 11.910156 -32.890625 11.222656 -33.234375 10.171875 -33.234375 C 9.160156 -33.234375 8.492188 -32.890625 8.171875 -32.203125 C 7.847656 -31.515625 7.6875 -30.207031 7.6875 -28.28125 L 7.6875 -10.859375 C 7.6875 -8.972656 7.847656 -7.675781 8.171875 -6.96875 C 8.492188 -6.269531 9.160156 -5.921875 10.171875 -5.921875 C 11.222656 -5.921875 11.910156 -6.269531 12.234375 -6.96875 C 12.554688 -7.675781 12.71875 -8.972656 12.71875 -10.859375 L 12.71875 -15.90625 L 19.140625 -15.90625 L 19.140625 -10.578125 C 19.140625 -6.628906 18.378906 -3.796875 16.859375 -2.078125 C 15.335938 -0.367188 13.109375 0.484375 10.171875 0.484375 Z M 10.171875 0.484375 "/></g></g><g style="fill:#231f20;fill-opacity:1;"><g transform="translate(144.350744, 204.158374)"><path style="stroke:none" d="M 1.265625 0 L 1.265625 -39.15625 L 7.6875 -39.15625 L 7.6875 -22.75 L 13.609375 -22.75 L 13.609375 -39.15625 L 20.015625 -39.15625 L 20.015625 0 L 13.609375 0 L 13.609375 -16.390625 L 7.6875 -16.390625 L 7.6875 0 Z M 1.265625 0 "/></g></g><g style="fill:#231f20;fill-opacity:1;"><g transform="translate(165.636349, 204.158374)"><path style="stroke:none" d="M 1.265625 0 L 1.265625 -39.15625 L 14.6875 -39.15625 L 14.6875 -32.734375 L 7.6875 -32.734375 L 7.6875 -22.75 L 14.6875 -22.75 L 14.6875 -16.390625 L 7.6875 -16.390625 L 7.6875 -6.40625 L 14.6875 -6.40625 L 14.6875 0 Z M 1.265625 0 "/></g></g><g style="fill:#231f20;fill-opacity:1;"><g transform="translate(181.588311, 204.158374)"><path style="stroke:none" d="M 1.265625 0 L 1.265625 -39.15625 L 7.6875 -39.15625 L 15.3125 -17.21875 L 15.3125 -39.15625 L 21.734375 -39.15625 L 21.734375 0 L 15.3125 0 L 7.6875 -21.921875 L 7.6875 0 Z M 1.265625 0 "/></g></g><g style="fill:#231f20;fill-opacity:1;"><g transform="translate(204.58655, 204.158374)"><path style="stroke:none" d="M 1.265625 0 L 1.265625 -39.15625 L 7.6875 -39.15625 L 7.6875 -8.703125 L 13.109375 -39.15625 L 23.9375 -39.15625 L 23.9375 -8.703125 L 29.359375 -39.15625 L 36.609375 -39.15625 L 28.234375 0 L 17.515625 0 L 17.515625 -27.84375 L 11.9375 0 Z M 1.265625 0 "/></g></g><g style="fill:#231f20;fill-opacity:1;"><g transform="translate(242.460228, 204.158374)"><path style="stroke:none" d="M 1.265625 0 L 6.40625 -39.15625 L 15.21875 -39.15625 L 20.359375 0 L 13.953125 0 L 13.21875 -7.140625 L 8.421875 -7.140625 L 7.6875 0 Z M 8.90625 -13.5 L 12.671875 -13.5 L 10.8125 -31.375 Z M 8.90625 -13.5 "/></g></g><g style="fill:#231f20;fill-opacity:1;"><g transform="translate(264.088352, 204.158374)"><path style="stroke:none" d="M 1.265625 0 L 1.265625 -39.15625 L 8.46875 -39.15625 C 11.238281 -39.15625 13.40625 -38.785156 14.96875 -38.046875 C 16.539062 -37.316406 17.644531 -36.175781 18.28125 -34.625 C 18.914062 -33.070312 19.234375 -31.023438 19.234375 -28.484375 L 19.234375 -25.640625 C 19.234375 -23.453125 18.929688 -21.625 18.328125 -20.15625 C 17.722656 -18.6875 16.703125 -17.53125 15.265625 -16.6875 C 16.609375 -16.195312 17.597656 -15.40625 18.234375 -14.3125 C 18.867188 -13.21875 19.1875 -11.660156 19.1875 -9.640625 L 19.1875 -3.46875 C 19.1875 -2.75 19.21875 -2.0625 19.28125 -1.40625 C 19.34375 -0.757812 19.488281 -0.289062 19.71875 0 L 13.3125 0 C 13.082031 -0.289062 12.941406 -0.757812 12.890625 -1.40625 C 12.847656 -2.0625 12.828125 -2.75 12.828125 -3.46875 L 12.828125 -10.8125 C 12.828125 -11.957031 12.65625 -12.804688 12.3125 -13.359375 C 11.96875 -13.910156 11.507812 -14.289062 10.9375 -14.5 C 10.363281 -14.71875 9.71875 -14.84375 9 -14.875 L 7.6875 -14.828125 L 7.6875 0 Z M 7.6875 -21.34375 L 9.203125 -21.34375 C 10.703125 -21.40625 11.679688 -21.773438 12.140625 -22.453125 C 12.597656 -23.140625 12.828125 -24.203125 12.828125 -25.640625 L 12.828125 -28.484375 C 12.828125 -29.984375 12.597656 -31.039062 12.140625 -31.65625 C 11.679688 -32.28125 10.703125 -32.625 9.203125 -32.6875 L 7.6875 -32.734375 Z M 7.6875 -21.34375 "/></g></g><g style="fill:#231f20;fill-opacity:1;"><g transform="translate(284.933547, 204.158374)"><path style="stroke:none" d="M 1.265625 0 L 1.265625 -39.15625 L 14.6875 -39.15625 L 14.6875 -32.734375 L 7.6875 -32.734375 L 7.6875 -22.75 L 14.6875 -22.75 L 14.6875 -16.390625 L 7.6875 -16.390625 L 7.6875 -6.40625 L 14.6875 -6.40625 L 14.6875 0 Z M 1.265625 0 "/></g></g><g style="fill:#000000;fill-opacity:1;"><g transform="translate(123.833278, 217.653544)"><path style="stroke:none" d="M 7.75 -2.296875 C 7.46875 -1.578125 7.007812 -1 6.375 -0.5625 C 5.726562 -0.113281 5.019531 0.109375 4.25 0.109375 C 3.207031 0.109375 2.316406 -0.273438 1.578125 -1.046875 C 0.859375 -1.796875 0.5 -2.695312 0.5 -3.75 C 0.5 -4.28125 0.59375 -4.78125 0.78125 -5.25 C 0.976562 -5.71875 1.242188 -6.128906 1.578125 -6.484375 C 2.316406 -7.253906 3.207031 -7.640625 4.25 -7.640625 C 5.019531 -7.640625 5.722656 -7.421875 6.359375 -6.984375 C 6.992188 -6.535156 7.453125 -5.953125 7.734375 -5.234375 L 6.875 -5.234375 C 6.46875 -5.984375 5.863281 -6.476562 5.0625 -6.71875 C 4.789062 -6.789062 4.484375 -6.828125 4.140625 -6.828125 C 3.796875 -6.828125 3.441406 -6.75 3.078125 -6.59375 C 2.710938 -6.425781 2.398438 -6.203125 2.140625 -5.921875 C 1.566406 -5.316406 1.28125 -4.59375 1.28125 -3.75 C 1.28125 -2.914062 1.566406 -2.203125 2.140625 -1.609375 C 2.722656 -0.992188 3.425781 -0.6875 4.25 -0.6875 C 4.8125 -0.6875 5.332031 -0.832031 5.8125 -1.125 C 6.269531 -1.425781 6.628906 -1.816406 6.890625 -2.296875 Z M 7.75 -2.296875 "/></g></g><g style="fill:#000000;fill-opacity:1;"><g transform="translate(135.442711, 217.653544)"><path style="stroke:none" d="M 7.46875 -3.78125 C 7.46875 -4.632812 7.164062 -5.363281 6.5625 -5.96875 C 5.957031 -6.570312 5.222656 -6.875 4.359375 -6.875 C 3.515625 -6.875 2.789062 -6.570312 2.1875 -5.96875 C 1.582031 -5.363281 1.28125 -4.632812 1.28125 -3.78125 C 1.28125 -2.925781 1.582031 -2.195312 2.1875 -1.59375 C 2.789062 -0.988281 3.515625 -0.6875 4.359375 -0.6875 C 5.222656 -0.6875 5.957031 -0.988281 6.5625 -1.59375 C 7.164062 -2.195312 7.46875 -2.925781 7.46875 -3.78125 Z M 8.234375 -3.78125 C 8.234375 -3.25 8.132812 -2.75 7.9375 -2.28125 C 7.738281 -1.8125 7.460938 -1.398438 7.109375 -1.046875 C 6.753906 -0.691406 6.34375 -0.414062 5.875 -0.21875 C 5.394531 -0.0078125 4.890625 0.09375 4.359375 0.09375 C 3.828125 0.09375 3.332031 -0.0078125 2.875 -0.21875 C 2.394531 -0.414062 1.984375 -0.691406 1.640625 -1.046875 C 1.285156 -1.398438 1.007812 -1.8125 0.8125 -2.28125 C 0.601562 -2.75 0.5 -3.25 0.5 -3.78125 C 0.5 -4.320312 0.601562 -4.828125 0.8125 -5.296875 C 1.007812 -5.765625 1.285156 -6.175781 1.640625 -6.53125 C 1.984375 -6.875 2.394531 -7.148438 2.875 -7.359375 C 3.332031 -7.554688 3.828125 -7.65625 4.359375 -7.65625 C 4.890625 -7.65625 5.394531 -7.554688 5.875 -7.359375 C 6.34375 -7.148438 6.753906 -6.875 7.109375 -6.53125 C 7.460938 -6.175781 7.738281 -5.765625 7.9375 -5.296875 C 8.132812 -4.828125 8.234375 -4.320312 8.234375 -3.78125 Z M 8.234375 -3.78125 "/></g></g><g style="fill:#000000;fill-opacity:1;"><g transform="translate(147.716805, 217.653544)"><path style="stroke:none" d="M 7.46875 -3.78125 C 7.46875 -4.632812 7.164062 -5.363281 6.5625 -5.96875 C 5.957031 -6.570312 5.222656 -6.875 4.359375 -6.875 C 3.515625 -6.875 2.789062 -6.570312 2.1875 -5.96875 C 1.582031 -5.363281 1.28125 -4.632812 1.28125 -3.78125 C 1.28125 -2.925781 1.582031 -2.195312 2.1875 -1.59375 C 2.789062 -0.988281 3.515625 -0.6875 4.359375 -0.6875 C 5.222656 -0.6875 5.957031 -0.988281 6.5625 -1.59375 C 7.164062 -2.195312 7.46875 -2.925781 7.46875 -3.78125 Z M 8.234375 -3.78125 C 8.234375 -3.25 8.132812 -2.75 7.9375 -2.28125 C 7.738281 -1.8125 7.460938 -1.398438 7.109375 -1.046875 C 6.753906 -0.691406 6.34375 -0.414062 5.875 -0.21875 C 5.394531 -0.0078125 4.890625 0.09375 4.359375 0.09375 C 3.828125 0.09375 3.332031 -0.0078125 2.875 -0.21875 C 2.394531 -0.414062 1.984375 -0.691406 1.640625 -1.046875 C 1.285156 -1.398438 1.007812 -1.8125 0.8125 -2.28125 C 0.601562 -2.75 0.5 -3.25 0.5 -3.78125 C 0.5 -4.320312 0.601562 -4.828125 0.8125 -5.296875 C 1.007812 -5.765625 1.285156 -6.175781 1.640625 -6.53125 C 1.984375 -6.875 2.394531 -7.148438 2.875 -7.359375 C 3.332031 -7.554688 3.828125 -7.65625 4.359375 -7.65625 C 4.890625 -7.65625 5.394531 -7.554688 5.875 -7.359375 C 6.34375 -7.148438 6.753906 -6.875 7.109375 -6.53125 C 7.460938 -6.175781 7.738281 -5.765625 7.9375 -5.296875 C 8.132812 -4.828125 8.234375 -4.320312 8.234375 -3.78125 Z M 8.234375 -3.78125 "/></g></g><g style="fill:#000000;fill-opacity:1;"><g transform="translate(159.990899, 217.653544)"><path style="stroke:none" d="M 1.609375 0 L 0.828125 0 L 0.828125 -7.53125 L 1.609375 -7.53125 L 1.609375 -4 L 4.140625 -7.53125 L 5.140625 -7.53125 L 2.375 -3.765625 L 5.140625 0 L 4.140625 0 L 1.609375 -3.53125 Z M 1.609375 0 "/></g></g><g style="fill:#000000;fill-opacity:1;"><g transform="translate(168.775503, 217.653544)"><path style="stroke:none" d="M 1.609375 0 L 0.828125 0 L 0.828125 -7.53125 L 1.609375 -7.53125 Z M 1.609375 0 "/></g></g><g style="fill:#000000;fill-opacity:1;"><g transform="translate(174.746363, 217.653544)"><path style="stroke:none" d="M 1.609375 -5.546875 L 1.609375 0 L 0.828125 0 L 0.828125 -8.015625 L 5.0625 -2 L 5.0625 -7.53125 L 5.84375 -7.53125 L 5.84375 0.46875 Z M 1.609375 -5.546875 "/></g></g><g style="fill:#000000;fill-opacity:1;"><g transform="translate(184.948918, 217.653544)"><path style="stroke:none" d="M 8.265625 -3.515625 L 8.1875 -3.0625 C 8.019531 -2.144531 7.570312 -1.390625 6.84375 -0.796875 C 6.113281 -0.203125 5.289062 0.09375 4.375 0.09375 C 3.84375 0.09375 3.34375 -0.0078125 2.875 -0.21875 C 2.394531 -0.414062 1.984375 -0.691406 1.640625 -1.046875 C 1.285156 -1.398438 1.007812 -1.8125 0.8125 -2.28125 C 0.601562 -2.75 0.5 -3.253906 0.5 -3.796875 C 0.5 -4.328125 0.601562 -4.832031 0.8125 -5.3125 C 1.007812 -5.78125 1.285156 -6.191406 1.640625 -6.546875 C 1.984375 -6.890625 2.394531 -7.164062 2.875 -7.375 C 3.34375 -7.570312 3.816406 -7.671875 4.296875 -7.671875 C 5.203125 -7.671875 6 -7.414062 6.6875 -6.90625 C 7.375 -6.394531 7.84375 -5.722656 8.09375 -4.890625 L 7.28125 -4.890625 C 7.039062 -5.503906 6.660156 -5.992188 6.140625 -6.359375 C 5.609375 -6.722656 5.019531 -6.90625 4.375 -6.90625 C 3.519531 -6.90625 2.789062 -6.601562 2.1875 -6 C 1.582031 -5.382812 1.28125 -4.648438 1.28125 -3.796875 C 1.28125 -2.953125 1.582031 -2.222656 2.1875 -1.609375 C 2.78125 -0.992188 3.507812 -0.6875 4.375 -0.6875 C 5.050781 -0.6875 5.671875 -0.882812 6.234375 -1.28125 C 6.785156 -1.675781 7.175781 -2.195312 7.40625 -2.84375 L 4.34375 -2.84375 L 4.34375 -3.515625 Z M 8.265625 -3.515625 "/></g></g><g style="fill:#000000;fill-opacity:1;"><g transform="translate(197.245169, 217.653544)"><path style="stroke:none" d=""/></g></g><g style="fill:#000000;fill-opacity:1;"><g transform="translate(203.769918, 217.653544)"><path style="stroke:none" d="M 0.21875 -6.828125 L 0.21875 -7.5625 L 4.65625 -7.5625 L 4.65625 -6.828125 L 2.828125 -6.828125 L 2.828125 -0.015625 L 2.046875 -0.015625 L 2.046875 -6.828125 Z M 0.21875 -6.828125 "/></g></g><g style="fill:#000000;fill-opacity:1;"><g transform="translate(212.177891, 217.653544)"><path style="stroke:none" d="M 7.46875 -3.78125 C 7.46875 -4.632812 7.164062 -5.363281 6.5625 -5.96875 C 5.957031 -6.570312 5.222656 -6.875 4.359375 -6.875 C 3.515625 -6.875 2.789062 -6.570312 2.1875 -5.96875 C 1.582031 -5.363281 1.28125 -4.632812 1.28125 -3.78125 C 1.28125 -2.925781 1.582031 -2.195312 2.1875 -1.59375 C 2.789062 -0.988281 3.515625 -0.6875 4.359375 -0.6875 C 5.222656 -0.6875 5.957031 -0.988281 6.5625 -1.59375 C 7.164062 -2.195312 7.46875 -2.925781 7.46875 -3.78125 Z M 8.234375 -3.78125 C 8.234375 -3.25 8.132812 -2.75 7.9375 -2.28125 C 7.738281 -1.8125 7.460938 -1.398438 7.109375 -1.046875 C 6.753906 -0.691406 6.34375 -0.414062 5.875 -0.21875 C 5.394531 -0.0078125 4.890625 0.09375 4.359375 0.09375 C 3.828125 0.09375 3.332031 -0.0078125 2.875 -0.21875 C 2.394531 -0.414062 1.984375 -0.691406 1.640625 -1.046875 C 1.285156 -1.398438 1.007812 -1.8125 0.8125 -2.28125 C 0.601562 -2.75 0.5 -3.25 0.5 -3.78125 C 0.5 -4.320312 0.601562 -4.828125 0.8125 -5.296875 C 1.007812 -5.765625 1.285156 -6.175781 1.640625 -6.53125 C 1.984375 -6.875 2.394531 -7.148438 2.875 -7.359375 C 3.332031 -7.554688 3.828125 -7.65625 4.359375 -7.65625 C 4.890625 -7.65625 5.394531 -7.554688 5.875 -7.359375 C 6.34375 -7.148438 6.753906 -6.875 7.109375 -6.53125 C 7.460938 -6.175781 7.738281 -5.765625 7.9375 -5.296875 C 8.132812 -4.828125 8.234375 -4.320312 8.234375 -3.78125 Z M 8.234375 -3.78125 "/></g></g><g style="fill:#000000;fill-opacity:1;"><g transform="translate(224.451985, 217.653544)"><path style="stroke:none" d="M 7.46875 -3.78125 C 7.46875 -4.632812 7.164062 -5.363281 6.5625 -5.96875 C 5.957031 -6.570312 5.222656 -6.875 4.359375 -6.875 C 3.515625 -6.875 2.789062 -6.570312 2.1875 -5.96875 C 1.582031 -5.363281 1.28125 -4.632812 1.28125 -3.78125 C 1.28125 -2.925781 1.582031 -2.195312 2.1875 -1.59375 C 2.789062 -0.988281 3.515625 -0.6875 4.359375 -0.6875 C 5.222656 -0.6875 5.957031 -0.988281 6.5625 -1.59375 C 7.164062 -2.195312 7.46875 -2.925781 7.46875 -3.78125 Z M 8.234375 -3.78125 C 8.234375 -3.25 8.132812 -2.75 7.9375 -2.28125 C 7.738281 -1.8125 7.460938 -1.398438 7.109375 -1.046875 C 6.753906 -0.691406 6.34375 -0.414062 5.875 -0.21875 C 5.394531 -0.0078125 4.890625 0.09375 4.359375 0.09375 C 3.828125 0.09375 3.332031 -0.0078125 2.875 -0.21875 C 2.394531 -0.414062 1.984375 -0.691406 1.640625 -1.046875 C 1.285156 -1.398438 1.007812 -1.8125 0.8125 -2.28125 C 0.601562 -2.75 0.5 -3.25 0.5 -3.78125 C 0.5 -4.320312 0.601562 -4.828125 0.8125 -5.296875 C 1.007812 -5.765625 1.285156 -6.175781 1.640625 -6.53125 C 1.984375 -6.875 2.394531 -7.148438 2.875 -7.359375 C 3.332031 -7.554688 3.828125 -7.65625 4.359375 -7.65625 C 4.890625 -7.65625 5.394531 -7.554688 5.875 -7.359375 C 6.34375 -7.148438 6.753906 -6.875 7.109375 -6.53125 C 7.460938 -6.175781 7.738281 -5.765625 7.9375 -5.296875 C 8.132812 -4.828125 8.234375 -4.320312 8.234375 -3.78125 Z M 8.234375 -3.78125 "/></g></g><g style="fill:#000000;fill-opacity:1;"><g transform="translate(236.726079, 217.653544)"><path style="stroke:none" d="M 1.609375 -0.78125 L 4.296875 -0.78125 L 4.296875 0 L 0.828125 0 L 0.828125 -7.53125 L 1.609375 -7.53125 Z M 1.609375 -0.78125 "/></g></g><g style="fill:#000000;fill-opacity:1;"><g transform="translate(244.779564, 217.653544)"><path style="stroke:none" d="M 2.921875 -3.5625 C 1.390625 -3.914062 0.625 -4.570312 0.625 -5.53125 C 0.625 -6.238281 0.867188 -6.769531 1.359375 -7.125 C 1.859375 -7.46875 2.441406 -7.640625 3.109375 -7.640625 C 4.578125 -7.640625 5.445312 -7.09375 5.71875 -6 L 4.875 -6 C 4.726562 -6.65625 4.140625 -6.984375 3.109375 -6.984375 C 2.378906 -6.984375 1.867188 -6.769531 1.578125 -6.34375 C 1.472656 -6.175781 1.421875 -5.972656 1.421875 -5.734375 C 1.421875 -5.265625 1.671875 -4.90625 2.171875 -4.65625 C 2.410156 -4.53125 2.910156 -4.367188 3.671875 -4.171875 C 4.441406 -3.960938 5 -3.738281 5.34375 -3.5 C 5.832031 -3.15625 6.078125 -2.679688 6.078125 -2.078125 C 6.078125 -1.316406 5.773438 -0.738281 5.171875 -0.34375 C 4.671875 -0.0195312 4.050781 0.140625 3.3125 0.140625 C 1.644531 0.140625 0.675781 -0.492188 0.40625 -1.765625 L 1.328125 -1.765625 C 1.472656 -0.960938 2.132812 -0.5625 3.3125 -0.5625 C 4.15625 -0.5625 4.742188 -0.796875 5.078125 -1.265625 C 5.203125 -1.453125 5.265625 -1.703125 5.265625 -2.015625 C 5.265625 -2.328125 5.144531 -2.582031 4.90625 -2.78125 C 4.5625 -3.0625 3.898438 -3.320312 2.921875 -3.5625 Z M 2.921875 -3.5625 "/></g></g></g></svg>